<?xml version="1.0" encoding="utf-8"?>
<!-- Generator: Adobe Illustrator 23.0.3, SVG Export Plug-In . SVG Version: 6.00 Build 0)  -->
<svg version="1.1" id="Layer_1" xmlns="http://www.w3.org/2000/svg" xmlns:xlink="http://www.w3.org/1999/xlink" x="0px" y="0px"
	 viewBox="0 0 605 84" style="enable-background:new 0 0 605 84;" xml:space="preserve">
<style type="text/css">
	.st0{fill:#FFFFFF;}
	.st1{fill:#A2CE8A;}
</style>
<g>
	<path class="st0" d="M105.3,26.85v47.64c0,0.9-0.17,1.76-0.52,2.58c-0.35,0.82-0.83,1.51-1.44,2.08c-0.61,0.57-1.32,1.03-2.12,1.38
		c-0.8,0.35-1.67,0.52-2.61,0.52c-0.9,0-1.76-0.17-2.57-0.52c-0.82-0.35-1.52-0.81-2.12-1.38c-0.59-0.57-1.06-1.27-1.41-2.08
		C92.17,76.25,92,75.4,92,74.49V9.13c0-0.94,0.17-1.81,0.52-2.61c0.35-0.8,0.83-1.49,1.44-2.08c0.61-0.59,1.33-1.05,2.15-1.38
		s1.68-0.49,2.58-0.49c1.76,0,3.33,0.63,4.72,1.9l26.55,31.52l26.43-31.52c0.57-0.53,1.27-0.98,2.11-1.35
		c0.84-0.37,1.65-0.55,2.42-0.55h0.49c0.9,0.04,1.74,0.25,2.51,0.61c0.78,0.37,1.46,0.84,2.05,1.41s1.05,1.25,1.38,2.02
		c0.33,0.78,0.49,1.62,0.49,2.51v65.37c0,0.9-0.17,1.76-0.52,2.58c-0.35,0.82-0.83,1.51-1.44,2.08c-0.61,0.57-1.32,1.03-2.11,1.38
		c-0.8,0.35-1.67,0.52-2.61,0.52c-0.9,0-1.75-0.17-2.54-0.52c-0.8-0.35-1.5-0.81-2.12-1.38c-0.61-0.57-1.09-1.27-1.44-2.08
		c-0.35-0.82-0.52-1.68-0.52-2.58V26.79l-20.23,24.04c-0.58,0.58-1.25,1.05-2.03,1.44c-0.78,0.39-1.57,0.58-2.39,0.58
		c-1.59,0-3-0.66-4.23-1.96h-0.06v-0.06L105.3,26.85z"/>
	<path class="st0" d="M177.97,52.54c0-4.05,0.77-7.84,2.33-11.37c1.55-3.53,3.66-6.63,6.32-9.29c2.66-2.66,5.75-4.75,9.29-6.29
		c3.53-1.53,7.31-2.3,11.31-2.3c4.04,0,7.85,0.76,11.4,2.3c3.56,1.53,6.65,3.63,9.29,6.29c2.64,2.66,4.71,5.76,6.22,9.29
		c1.51,3.54,2.27,7.33,2.27,11.37v21.71c0,0.94-0.17,1.82-0.52,2.64c-0.35,0.82-0.83,1.53-1.44,2.15c-0.61,0.61-1.34,1.1-2.18,1.47
		c-0.84,0.37-1.73,0.55-2.67,0.55c-1.6,0-2.94-0.47-4.05-1.41c-1.1-0.94-1.84-2.12-2.21-3.56c-2.33,1.76-4.86,3.15-7.57,4.17
		c-2.72,1.02-5.57,1.53-8.55,1.53c-4.01,0-7.78-0.76-11.31-2.3c-3.54-1.53-6.63-3.63-9.29-6.29c-2.66-2.66-4.76-5.76-6.32-9.32
		C178.74,60.33,177.97,56.55,177.97,52.54z M191.27,52.54c0,2.17,0.42,4.22,1.26,6.16c0.84,1.94,1.98,3.64,3.44,5.09
		c1.45,1.45,3.14,2.6,5.06,3.43c1.92,0.84,3.98,1.26,6.19,1.26c2.21,0,4.28-0.42,6.22-1.26c1.94-0.84,3.63-1.98,5.06-3.43
		c1.43-1.45,2.55-3.15,3.37-5.09c0.82-1.94,1.23-4,1.23-6.16c0-2.21-0.41-4.28-1.23-6.22c-0.82-1.94-1.94-3.63-3.37-5.06
		c-1.43-1.43-3.12-2.56-5.06-3.4c-1.94-0.84-4.02-1.26-6.22-1.26c-2.17,0-4.22,0.42-6.16,1.26c-1.94,0.84-3.64,1.97-5.09,3.4
		c-1.45,1.43-2.6,3.12-3.44,5.06C191.69,48.26,191.27,50.34,191.27,52.54z"/>
	<path class="st0" d="M261.55,24.03h21.34c0.94,0,1.82,0.17,2.64,0.52c0.82,0.35,1.53,0.83,2.15,1.44c0.61,0.61,1.09,1.33,1.44,2.15
		c0.35,0.82,0.52,1.7,0.52,2.64c0,0.9-0.17,1.75-0.52,2.54s-0.83,1.49-1.44,2.08c-0.61,0.59-1.33,1.06-2.15,1.41
		c-0.82,0.35-1.7,0.52-2.64,0.52h-21.34v15.52c0,2.17,0.42,4.2,1.26,6.1c0.84,1.9,1.97,3.56,3.4,4.97c1.43,1.41,3.12,2.52,5.06,3.34
		c1.94,0.82,4.01,1.22,6.22,1.22c1.96,0,3.78-0.28,5.46-0.83c1.68-0.55,3.23-1.46,4.66-2.73c0.7-0.65,1.47-1.19,2.33-1.62
		c0.86-0.43,1.76-0.64,2.7-0.64c1.51,0,2.88,0.55,4.11,1.65c0.74,0.66,1.26,1.43,1.56,2.33c0.31,0.9,0.43,1.83,0.37,2.79
		c-0.06,0.96-0.3,1.89-0.71,2.79c-0.41,0.9-0.98,1.7-1.72,2.39c-2.45,2.37-5.27,4.16-8.46,5.37c-3.19,1.21-6.62,1.81-10.3,1.81
		c-4.05,0-7.84-0.76-11.37-2.27c-3.54-1.51-6.63-3.58-9.29-6.19c-2.66-2.62-4.75-5.69-6.28-9.23c-1.53-3.54-2.3-7.33-2.3-11.38
		V13.36c0-0.94,0.18-1.82,0.55-2.64s0.86-1.53,1.47-2.15c0.61-0.61,1.33-1.09,2.14-1.44c0.82-0.35,1.68-0.52,2.58-0.52
		c0.9,0,1.75,0.17,2.54,0.52c0.8,0.35,1.49,0.83,2.08,1.44c0.59,0.61,1.06,1.33,1.41,2.15c0.35,0.82,0.52,1.7,0.52,2.64V24.03z"/>
	<path class="st0" d="M317.77,58.49c0.53,1.52,1.27,2.89,2.24,4.14c0.96,1.25,2.08,2.31,3.34,3.19c1.27,0.88,2.66,1.55,4.17,2.02
		c1.51,0.47,3.1,0.71,4.78,0.71c4.21,0,7.52-1.1,9.93-3.31c0.82-0.57,1.62-0.99,2.39-1.26c0.78-0.26,1.51-0.4,2.21-0.4
		c1.14,0,2.16,0.3,3.07,0.89s1.64,1.36,2.21,2.3c0.41,0.66,0.71,1.36,0.89,2.12c0.18,0.76,0.23,1.52,0.12,2.3
		c-0.1,0.78-0.35,1.54-0.74,2.3c-0.39,0.76-0.97,1.44-1.75,2.05c-0.9,0.82-1.92,1.6-3.07,2.36c-1.14,0.76-2.46,1.42-3.96,1.99
		c-1.49,0.57-3.17,1.03-5.03,1.38c-1.86,0.35-3.96,0.52-6.29,0.52c-4.05,0-7.85-0.76-11.41-2.3c-3.56-1.53-6.66-3.63-9.32-6.29
		c-2.66-2.66-4.76-5.76-6.32-9.29c-1.56-3.54-2.33-7.33-2.33-11.38s0.77-7.85,2.33-11.4c1.55-3.56,3.66-6.65,6.32-9.29
		c2.66-2.64,5.76-4.72,9.32-6.26c3.56-1.53,7.36-2.3,11.41-2.3c4.01,0,7.78,0.76,11.31,2.27c3.53,1.51,6.64,3.57,9.32,6.16
		c2.67,2.6,4.8,5.65,6.37,9.17c1.58,3.52,2.38,7.28,2.43,11.28c0,1.88-0.6,3.4-1.81,4.57c-1.21,1.17-2.79,1.75-4.76,1.75H317.77z
		 M348.06,47.45c-0.45-1.68-1.16-3.19-2.12-4.54s-2.12-2.49-3.46-3.43c-1.35-0.94-2.86-1.65-4.54-2.15
		c-1.68-0.49-3.46-0.74-5.34-0.74s-3.65,0.26-5.3,0.77c-1.65,0.51-3.15,1.25-4.47,2.21c-1.33,0.96-2.46,2.11-3.4,3.43
		c-0.94,1.33-1.64,2.81-2.08,4.45H348.06z"/>
	<path class="st0" d="M384.92,26.85v47.64c0,0.9-0.17,1.76-0.52,2.58c-0.35,0.82-0.83,1.51-1.44,2.08
		c-0.61,0.57-1.32,1.03-2.11,1.38c-0.8,0.35-1.67,0.52-2.61,0.52c-0.9,0-1.76-0.17-2.58-0.52c-0.82-0.35-1.52-0.81-2.11-1.38
		c-0.59-0.57-1.06-1.27-1.41-2.08c-0.35-0.82-0.52-1.68-0.52-2.58V9.13c0-0.94,0.17-1.81,0.52-2.61s0.83-1.49,1.44-2.08
		c0.61-0.59,1.33-1.05,2.15-1.38c0.82-0.33,1.68-0.49,2.58-0.49c1.76,0,3.33,0.63,4.72,1.9l26.55,31.52l26.43-31.52
		c0.57-0.53,1.28-0.98,2.12-1.35c0.84-0.37,1.65-0.55,2.42-0.55h0.49c0.9,0.04,1.74,0.25,2.51,0.61c0.78,0.37,1.46,0.84,2.05,1.41
		c0.59,0.57,1.05,1.25,1.38,2.02c0.33,0.78,0.49,1.62,0.49,2.51v65.37c0,0.9-0.17,1.76-0.52,2.58c-0.35,0.82-0.83,1.51-1.44,2.08
		c-0.61,0.57-1.32,1.03-2.12,1.38c-0.79,0.35-1.66,0.52-2.6,0.52c-0.9,0-1.75-0.17-2.55-0.52c-0.8-0.35-1.5-0.81-2.11-1.38
		c-0.61-0.57-1.09-1.27-1.44-2.08c-0.35-0.82-0.52-1.68-0.52-2.58V26.79l-20.24,24.04c-0.57,0.58-1.25,1.05-2.02,1.44
		s-1.57,0.58-2.39,0.58c-1.59,0-3-0.66-4.23-1.96h-0.06v-0.06L384.92,26.85z"/>
	<path class="st0" d="M457.58,52.54c0-4.05,0.78-7.84,2.33-11.37c1.55-3.53,3.66-6.63,6.32-9.29s5.75-4.75,9.29-6.29
		s7.31-2.3,11.31-2.3c4.05,0,7.85,0.76,11.4,2.3c3.56,1.53,6.65,3.63,9.29,6.29c2.64,2.66,4.71,5.76,6.22,9.29
		c1.51,3.54,2.27,7.33,2.27,11.37v21.71c0,0.94-0.17,1.82-0.52,2.64c-0.35,0.82-0.83,1.53-1.44,2.15c-0.61,0.61-1.34,1.1-2.18,1.47
		c-0.84,0.37-1.73,0.55-2.67,0.55c-1.59,0-2.94-0.47-4.05-1.41c-1.1-0.94-1.84-2.12-2.21-3.56c-2.33,1.76-4.85,3.15-7.57,4.17
		c-2.72,1.02-5.57,1.53-8.55,1.53c-4.01,0-7.78-0.76-11.31-2.3c-3.54-1.53-6.63-3.63-9.29-6.29s-4.76-5.76-6.32-9.32
		C458.35,60.33,457.58,56.55,457.58,52.54z M470.88,52.54c0,2.17,0.42,4.22,1.26,6.16c0.84,1.94,1.98,3.64,3.43,5.09
		c1.45,1.45,3.14,2.6,5.06,3.43c1.92,0.84,3.98,1.26,6.19,1.26c2.21,0,4.28-0.42,6.22-1.26c1.94-0.84,3.63-1.98,5.06-3.43
		c1.43-1.45,2.56-3.15,3.37-5.09c0.82-1.94,1.22-4,1.22-6.16c0-2.21-0.41-4.28-1.22-6.22c-0.82-1.94-1.94-3.63-3.37-5.06
		c-1.43-1.43-3.12-2.56-5.06-3.4c-1.94-0.84-4.02-1.26-6.22-1.26c-2.17,0-4.22,0.42-6.16,1.26c-1.94,0.84-3.64,1.97-5.09,3.4
		c-1.45,1.43-2.6,3.12-3.43,5.06C471.3,48.26,470.88,50.34,470.88,52.54z"/>
	<path class="st0" d="M541.15,24.03h21.34c0.94,0,1.82,0.17,2.64,0.52c0.82,0.35,1.53,0.83,2.15,1.44c0.61,0.61,1.09,1.33,1.44,2.15
		c0.35,0.82,0.52,1.7,0.52,2.64c0,0.9-0.17,1.75-0.52,2.54s-0.83,1.49-1.44,2.08s-1.33,1.06-2.15,1.41
		c-0.82,0.35-1.7,0.52-2.64,0.52h-21.34v15.52c0,2.17,0.42,4.2,1.26,6.1c0.84,1.9,1.97,3.56,3.4,4.97c1.43,1.41,3.12,2.52,5.06,3.34
		c1.94,0.82,4.02,1.22,6.22,1.22c1.96,0,3.78-0.28,5.46-0.83c1.68-0.55,3.23-1.46,4.66-2.73c0.69-0.65,1.47-1.19,2.33-1.62
		c0.86-0.43,1.76-0.64,2.7-0.64c1.51,0,2.88,0.55,4.11,1.65c0.74,0.66,1.26,1.43,1.56,2.33c0.31,0.9,0.43,1.83,0.37,2.79
		c-0.06,0.96-0.3,1.89-0.7,2.79c-0.41,0.9-0.98,1.7-1.72,2.39c-2.46,2.37-5.27,4.16-8.46,5.37c-3.19,1.21-6.62,1.81-10.3,1.81
		c-4.05,0-7.84-0.76-11.37-2.27c-3.54-1.51-6.63-3.58-9.29-6.19c-2.66-2.62-4.75-5.69-6.29-9.23c-1.53-3.54-2.3-7.33-2.3-11.38
		V13.36c0-0.94,0.18-1.82,0.55-2.64c0.37-0.82,0.86-1.53,1.47-2.15c0.61-0.61,1.33-1.09,2.15-1.44c0.82-0.35,1.68-0.52,2.57-0.52
		s1.75,0.17,2.55,0.52c0.79,0.35,1.49,0.83,2.08,1.44c0.59,0.61,1.06,1.33,1.41,2.15c0.35,0.82,0.52,1.7,0.52,2.64V24.03z"/>
	<path class="st0" d="M586.34,10.48c0-1.02,0.19-1.98,0.58-2.88c0.39-0.9,0.91-1.68,1.56-2.33c0.65-0.65,1.43-1.17,2.33-1.56
		c0.9-0.39,1.84-0.58,2.82-0.58c0.98,0,1.92,0.2,2.82,0.58c0.9,0.39,1.68,0.91,2.36,1.56c0.67,0.66,1.2,1.43,1.59,2.33
		c0.39,0.9,0.58,1.86,0.58,2.88c0,0.98-0.2,1.91-0.58,2.79c-0.39,0.88-0.92,1.65-1.59,2.3c-0.68,0.65-1.46,1.17-2.36,1.56
		c-0.9,0.39-1.84,0.58-2.82,0.58c-0.98,0-1.92-0.2-2.82-0.58c-0.9-0.39-1.68-0.91-2.33-1.56c-0.66-0.66-1.17-1.42-1.56-2.3
		C586.54,12.39,586.34,11.46,586.34,10.48z M600.32,74.43c0,0.9-0.17,1.76-0.52,2.58c-0.35,0.82-0.82,1.52-1.41,2.12
		c-0.59,0.59-1.29,1.06-2.08,1.41c-0.8,0.35-1.67,0.52-2.61,0.52c-0.9,0-1.76-0.17-2.58-0.52c-0.82-0.35-1.53-0.82-2.15-1.41
		c-0.61-0.59-1.09-1.3-1.44-2.12c-0.35-0.82-0.52-1.68-0.52-2.58V30.65c0-0.9,0.18-1.75,0.55-2.54c0.37-0.8,0.86-1.5,1.47-2.12
		c0.61-0.61,1.33-1.09,2.15-1.44c0.82-0.34,1.7-0.52,2.64-0.52c0.94,0,1.8,0.17,2.58,0.52c0.78,0.35,1.46,0.83,2.05,1.44
		c0.59,0.61,1.05,1.32,1.38,2.12c0.33,0.8,0.49,1.65,0.49,2.54V74.43z"/>
</g>
<path class="st1" d="M67.3,34.97c-3.47-0.6-11.6,5.43-13.14,14.35c-0.79,4.6,0.81,9.15,2.78,12.51v0l0,0
	c1.22,2.09,2.52,3.8,3.56,4.65c0.07-0.18,0.14-0.38,0.21-0.59c0.03-0.07,0.05-0.15,0.08-0.23c0.04-0.12,0.09-0.25,0.13-0.38
	c0.05-0.13,0.09-0.26,0.14-0.39c0.02-0.07,0.05-0.14,0.07-0.21c0.28-0.8,0.59-1.69,0.92-2.65c0,0,0,0,0,0
	c0.09-0.25,0.17-0.5,0.26-0.76c-0.58-0.63-2.01-2.29-3.42-4.8c-1.75-3.11-1.64-5.41-1.64-5.41s0.58,2.25,2.1,4.24
	c1.4,1.83,3.32,3.77,4.01,2.79c0,0,0,0,0,0c0.35-1.09,0.69-2.18,0.99-3.23c0.01-0.03,0.02-0.06,0.03-0.09
	c-0.4-0.42-1.75-1.89-3.08-4.24c-1.53-2.68-1.45-4.67-1.45-4.67s0.51,1.94,1.84,3.65c1.21,1.56,2.87,3.22,3.47,2.4
	c0.02-0.07,0.04-0.16,0.06-0.23c0.12-0.5,0.23-0.98,0.34-1.46c0.02-0.09,0.04-0.17,0.06-0.26c0.1-0.46,0.2-0.92,0.29-1.36
	c0,0,0-0.01,0-0.01c-0.33-0.27-1.18-1.03-2.08-2.23c-1.1-1.47-1.2-2.66-1.2-2.66s0.45,1.11,1.36,2.03c0.84,0.85,1.97,1.72,2.24,1.15
	v0c0.17-0.96,0.3-1.88,0.41-2.74c0,0,0-0.01,0-0.01c0.1-0.86,0.18-1.66,0.22-2.42c0-0.02,0-0.04,0-0.06
	c0.02-0.33,0.03-0.66,0.04-0.97c0-0.05,0-0.1,0-0.15c0.01-0.33,0-0.65,0-0.95c0-0.03,0-0.05,0-0.08c-0.01-0.27-0.02-0.53-0.04-0.78
	c0-0.07-0.01-0.14-0.02-0.21c-0.02-0.27-0.05-0.53-0.08-0.78v0v0c0,0,1.75,3.28,1.18,9.44c0.01,0.71,0.96,0.23,1.8-0.45
	c0.86-0.69,1.34-1.59,1.34-1.59s-0.61,1.49-1.37,2.4c-0.6,0.71-1.68,1.26-1.99,1.41c-0.01,0.08-0.02,0.15-0.03,0.23
	c-0.08,0.47-0.17,0.97-0.28,1.48c-0.02,0.1-0.04,0.2-0.07,0.3c-0.11,0.51-0.23,1.02-0.36,1.55c0.09,0.85,1.66,0.33,3.12-0.47
	c1.61-0.88,2.67-2.23,2.67-2.23s-1.44,2.28-2.96,3.55c-1.09,0.91-2.83,1.49-3.53,1.7c-0.29,0.97-0.6,1.95-0.91,2.93c0,0,0,0,0,0
	c-0.01,0.05-0.02,0.11-0.03,0.2c-0.33,1.61,1.92,0.93,4-0.2c2.08-1.13,3.45-2.84,3.45-2.84s-1.87,2.93-3.84,4.55
	c-1.77,1.46-4.84,2.25-4.95,2.28c-0.53,1.47-1.04,2.81-1.48,3.92c-0.05,0.13-0.1,0.26-0.15,0.39c-0.04,0.1-0.07,0.19-0.11,0.28
	c-0.08,0.2-0.16,0.4-0.23,0.58c-0.01,0.02-0.01,0.03-0.02,0.05c0.12,0.01,0.23,0,0.36-0.02c0.27-0.05,0.58-0.19,0.94-0.35h0l0,0
	c3.33-1.48,10.3-6.62,11.56-13.92C76.23,44.99,70.48,35.52,67.3,34.97"/>
<path class="st1" d="M39.5,46.89c-0.55-6.23-5.8-10.85-8.23-10.63c-2.22,0.2-6.72,6.39-6.24,11.91c0.45,5.1,4.96,9.04,7.17,10.25
	l0,0h0c0.24,0.13,0.45,0.24,0.63,0.29c0.08,0.02,0.16,0.03,0.24,0.03c-0.28-0.91-0.67-2.22-1.07-3.71
	c-0.08-0.03-2.15-0.75-3.28-1.85c-1.27-1.23-2.38-3.35-2.38-3.35s0.85,1.26,2.22,2.16c1.37,0.9,2.88,1.49,2.74,0.37
	c-0.01-0.06-0.01-0.1-0.01-0.13c-0.16-0.69-0.32-1.39-0.46-2.08c-0.47-0.18-1.63-0.68-2.33-1.38c-0.98-0.96-1.84-2.62-1.84-2.62
	s0.65,0.99,1.71,1.69c0.97,0.65,2.03,1.08,2.12,0.47c-0.13-0.81-0.24-1.59-0.29-2.3c0-0.06,0-0.11-0.01-0.16
	c-0.2-0.12-0.92-0.57-1.29-1.09c-0.48-0.67-0.81-1.73-0.81-1.73s0.28,0.65,0.83,1.17c0.54,0.51,1.17,0.9,1.22,0.41
	c-0.04-4.27,1.35-6.43,1.35-6.43c-0.34,1.5-0.4,3.62-0.16,6.3c0.13,0.46,0.97-0.08,1.61-0.63c0.68-0.58,1.05-1.32,1.05-1.32
	s-0.14,0.81-0.98,1.76c-0.68,0.77-1.31,1.24-1.56,1.42c0.08,0.7,0.17,1.41,0.29,2.17c0.01,0.05,0.02,0.11,0.03,0.16
	c0.36,0.61,1.6-0.45,2.53-1.45c1.01-1.1,1.47-2.41,1.47-2.41s-0.06,1.38-1.26,3.13c-1.06,1.54-2.07,2.48-2.37,2.74
	c0.16,0.76,0.33,1.56,0.51,2.35c0.41,0.72,1.86-0.51,2.92-1.69c1.16-1.28,1.69-2.8,1.69-2.8s-0.06,1.59-1.44,3.64
	c-1.12,1.65-2.2,2.71-2.63,3.11c0.36,1.46,0.71,2.78,0.95,3.69c0.77-0.53,1.76-1.63,2.72-3l0,0v0
	C38.42,53.15,39.79,50.11,39.5,46.89"/>
<path class="st1" d="M63.99,72.38c-0.04,0.02-0.07,0.03-0.11,0.05c-0.53,0.23-1.06,0.45-1.69,0.58c-0.35,0.07-0.7,0.11-1.07,0.11
	c-0.1,0-0.2,0-0.3-0.01c-1.04-0.05-2.06-0.4-3.04-1.03c-0.25-0.16-0.51-0.33-0.76-0.56c-3.81-3.57-6.51-10.56-7.78-16.91
	c-0.52-2.57-1.9-3.57-3.4-3.57c-0.76,0-1.63,0.15-2.27,0.72c-1.71,1.53-3.75,9.51-6.97,11.31c-3.25,1.81-7.95-1.06-8.87-1.96
	c-2.77-2.7-4.94-6.73-5.27-10.41c-0.1-1.11-0.04-2.19,0.11-3.21c-0.98,3.67-1.22,7.61-0.55,11.63
	c2.41,14.37,15.86,24.42,30.32,22.68c11.7-1.41,20.74-9.97,23.37-20.73C72.88,66.7,67.61,70.75,63.99,72.38"/>
<path class="st1" d="M53.04,43.06c2.43-3.87,1.42-8.88-0.09-9.83c-1.38-0.87-6.74,0.75-8.9,4.18c-1.99,3.17-1.11,7.46-0.36,9.14v0
	l0,0c0.08,0.18,0.15,0.34,0.24,0.45c0.04,0.05,0.08,0.09,0.13,0.13c0.24-0.65,0.59-1.59,1.01-2.63c-0.04-0.05-0.92-1.38-1.09-2.53
	c-0.19-1.28,0.1-3.01,0.1-3.01s-0.06,1.11,0.34,2.24c0.4,1.13,1.02,2.14,1.43,1.43c0.02-0.04,0.04-0.06,0.05-0.08
	c0.21-0.47,0.43-0.95,0.65-1.41C46.36,40.8,45.9,40,45.8,39.28c-0.14-0.99,0.09-2.34,0.09-2.34s-0.06,0.86,0.25,1.74
	c0.28,0.81,0.7,1.53,1.03,1.21c0.28-0.53,0.57-1.03,0.85-1.47c0.02-0.03,0.04-0.06,0.07-0.1c-0.07-0.16-0.28-0.73-0.27-1.2
	c0.02-0.6,0.29-1.37,0.29-1.37s-0.12,0.5-0.03,1.05c0.09,0.54,0.28,1.04,0.52,0.78c1.87-2.5,3.63-3.15,3.63-3.15
	c-0.86,0.72-1.83,1.93-2.88,3.6c-0.12,0.32,0.6,0.38,1.22,0.35c0.65-0.04,1.2-0.3,1.2-0.3s-0.44,0.41-1.35,0.59
	c-0.74,0.15-1.31,0.14-1.53,0.14c-0.26,0.44-0.52,0.9-0.79,1.39c-0.02,0.03-0.04,0.07-0.05,0.1c-0.06,0.51,1.13,0.45,2.12,0.27
	c1.07-0.2,1.92-0.75,1.92-0.75s-0.64,0.78-2.12,1.27c-1.3,0.43-2.3,0.53-2.59,0.55c-0.25,0.51-0.5,1.05-0.74,1.59
	c-0.08,0.6,1.31,0.52,2.45,0.31c1.24-0.23,2.22-0.88,2.22-0.88s-0.74,0.9-2.45,1.48c-1.38,0.47-2.48,0.61-2.91,0.65
	c-0.44,1.01-0.82,1.93-1.08,2.57c0.68,0.03,1.74-0.17,2.91-0.55h0C49.65,46.22,51.79,45.05,53.04,43.06"/>
<path class="st0" d="M40.27,34.32C40.28,34.32,40.27,34.32,40.27,34.32c-0.01-0.02-0.02-0.05-0.03-0.07
	c-0.01-0.02-0.02-0.04-0.02-0.06c-0.44-1.07-0.88-2.07-1.57-3.66c-5.36-12.26-8.74-16.86-10.18-18.45c0.02-0.1,0.03-0.2,0.03-0.31
	c0.04-1.37-1.03-2.52-2.4-2.55c-0.34-0.01-0.62,0.06-0.76,0.11c-4.84-4.75-10.98-7.11-11.3-7.16c-0.78-0.12-1.86,1.89-1.98,2.67
	c-0.12,0.78-0.24,1.38,1.2,1.62c0.07,0.01,6.1,0.94,10.34,4.71c-0.03,0.15-0.05,0.3-0.06,0.45c-0.04,1.37,1.03,2.51,2.4,2.55
	c0.14,0,0.28-0.01,0.42-0.03c1.15,1.32,4.37,5.66,9.58,17.56c0.68,1.54,1.12,2.57,1.55,3.59c0.01,0.04,0.03,0.08,0.05,0.12
	c0.01,0.02,0.02,0.05,0.03,0.07c0,0,0,0,0,0c0.25,0.46,0.74,0.77,1.29,0.77c0.81,0,1.47-0.66,1.47-1.47
	C40.35,34.62,40.32,34.47,40.27,34.32"/>
</svg>
