<?xml version="1.0" encoding="utf-8"?>
<!-- Generator: Adobe Illustrator 23.0.3, SVG Export Plug-In . SVG Version: 6.00 Build 0)  -->
<svg version="1.1" id="Layer_1" xmlns="http://www.w3.org/2000/svg" xmlns:xlink="http://www.w3.org/1999/xlink" x="0px" y="0px"
	 viewBox="0 0 467 84" style="enable-background:new 0 0 467 84;" xml:space="preserve">
<style type="text/css">
	.st0{fill:#FFFFFF;}
</style>
<g>
	<path class="st0" d="M21.95,30.48V72.1c0,0.79-0.15,1.54-0.45,2.25c-0.31,0.71-0.73,1.32-1.26,1.82c-0.54,0.5-1.15,0.9-1.85,1.2
		c-0.7,0.31-1.46,0.46-2.28,0.46c-0.78,0-1.54-0.15-2.25-0.46c-0.71-0.3-1.33-0.7-1.85-1.2c-0.52-0.5-0.93-1.11-1.23-1.82
		c-0.3-0.71-0.45-1.46-0.45-2.25V15c0-0.82,0.15-1.58,0.45-2.28c0.3-0.7,0.73-1.3,1.26-1.82c0.54-0.52,1.16-0.92,1.88-1.2
		c0.71-0.28,1.46-0.43,2.25-0.43c1.54,0,2.91,0.55,4.12,1.66l23.19,27.53l23.09-27.53c0.5-0.46,1.11-0.85,1.85-1.18
		c0.73-0.32,1.44-0.48,2.12-0.48h0.43c0.79,0.04,1.52,0.21,2.2,0.54c0.68,0.32,1.28,0.73,1.79,1.23c0.52,0.5,0.92,1.09,1.21,1.77
		c0.28,0.68,0.43,1.41,0.43,2.2v57.1c0,0.79-0.15,1.54-0.46,2.25c-0.3,0.71-0.72,1.32-1.26,1.82c-0.54,0.5-1.15,0.9-1.85,1.2
		c-0.7,0.31-1.46,0.46-2.28,0.46c-0.79,0-1.53-0.15-2.22-0.46c-0.7-0.3-1.31-0.7-1.85-1.2c-0.54-0.5-0.96-1.11-1.26-1.82
		c-0.3-0.71-0.46-1.46-0.46-2.25V30.42l-17.67,21c-0.5,0.5-1.09,0.92-1.77,1.26s-1.38,0.51-2.09,0.51c-1.39,0-2.62-0.57-3.7-1.71
		h-0.05v-0.05L21.95,30.48z"/>
	<path class="st0" d="M85.43,52.92c0-3.54,0.68-6.85,2.04-9.93c1.35-3.09,3.19-5.79,5.52-8.11c2.32-2.32,5.02-4.15,8.11-5.49
		c3.09-1.34,6.38-2.01,9.88-2.01c3.53,0,6.86,0.67,9.96,2.01c3.11,1.34,5.81,3.17,8.11,5.49c2.31,2.32,4.12,5.03,5.44,8.11
		c1.32,3.09,1.98,6.4,1.98,9.93v18.96c0,0.82-0.15,1.59-0.46,2.31c-0.3,0.71-0.72,1.34-1.26,1.88c-0.54,0.53-1.17,0.96-1.9,1.28
		c-0.73,0.32-1.51,0.48-2.33,0.48c-1.39,0-2.57-0.41-3.54-1.23c-0.96-0.82-1.61-1.85-1.93-3.11c-2.04,1.54-4.24,2.75-6.61,3.64
		c-2.38,0.89-4.87,1.34-7.47,1.34c-3.5,0-6.8-0.67-9.88-2.01c-3.09-1.34-5.79-3.17-8.11-5.49c-2.32-2.32-4.16-5.03-5.52-8.14
		C86.1,59.72,85.43,56.42,85.43,52.92z M97.05,52.92c0,1.89,0.37,3.69,1.1,5.38c0.73,1.7,1.73,3.18,3,4.44
		c1.27,1.27,2.74,2.27,4.42,3c1.68,0.73,3.48,1.1,5.41,1.1c1.93,0,3.74-0.37,5.44-1.1c1.69-0.73,3.17-1.73,4.42-3
		c1.25-1.27,2.23-2.75,2.94-4.44c0.71-1.7,1.07-3.49,1.07-5.38c0-1.93-0.36-3.74-1.07-5.44c-0.71-1.69-1.7-3.17-2.94-4.42
		c-1.25-1.25-2.72-2.24-4.42-2.97c-1.7-0.73-3.51-1.1-5.44-1.1c-1.89,0-3.69,0.37-5.38,1.1c-1.7,0.73-3.18,1.72-4.44,2.97
		c-1.27,1.25-2.27,2.72-3,4.42C97.41,49.18,97.05,50.99,97.05,52.92z"/>
	<path class="st0" d="M158.43,28.02h18.64c0.82,0,1.59,0.15,2.3,0.45c0.71,0.31,1.34,0.73,1.88,1.26c0.54,0.54,0.96,1.16,1.26,1.88
		c0.3,0.71,0.46,1.48,0.46,2.31c0,0.78-0.15,1.53-0.46,2.22c-0.3,0.7-0.72,1.3-1.26,1.82c-0.54,0.52-1.16,0.93-1.88,1.23
		s-1.48,0.45-2.3,0.45h-18.64v13.55c0,1.89,0.37,3.67,1.1,5.33c0.73,1.66,1.72,3.11,2.97,4.34c1.25,1.23,2.72,2.2,4.42,2.92
		c1.7,0.71,3.51,1.07,5.44,1.07c1.71,0,3.3-0.24,4.77-0.72c1.46-0.48,2.82-1.28,4.07-2.38c0.61-0.57,1.29-1.04,2.04-1.42
		c0.75-0.38,1.54-0.56,2.36-0.56c1.32,0,2.52,0.48,3.59,1.45c0.64,0.57,1.1,1.25,1.36,2.04c0.27,0.78,0.38,1.6,0.32,2.44
		c-0.05,0.84-0.26,1.65-0.62,2.44s-0.86,1.48-1.5,2.09c-2.14,2.07-4.6,3.64-7.39,4.69c-2.78,1.05-5.78,1.58-9,1.58
		c-3.54,0-6.85-0.66-9.93-1.98c-3.09-1.32-5.79-3.12-8.12-5.41c-2.32-2.28-4.15-4.97-5.49-8.06c-1.34-3.09-2.01-6.4-2.01-9.94V18.69
		c0-0.82,0.16-1.59,0.48-2.3c0.32-0.71,0.75-1.34,1.29-1.88c0.53-0.54,1.16-0.96,1.87-1.26c0.71-0.3,1.47-0.46,2.25-0.46
		s1.53,0.15,2.22,0.46s1.3,0.72,1.82,1.26c0.52,0.54,0.93,1.16,1.23,1.88c0.3,0.71,0.46,1.48,0.46,2.3V28.02z"/>
	<path class="st0" d="M207.55,58.12c0.46,1.32,1.11,2.53,1.95,3.62c0.84,1.09,1.81,2.02,2.92,2.79c1.11,0.77,2.32,1.36,3.64,1.77
		c1.32,0.41,2.71,0.62,4.18,0.62c3.68,0,6.57-0.96,8.68-2.89c0.71-0.5,1.41-0.87,2.09-1.1c0.68-0.23,1.32-0.35,1.93-0.35
		c1,0,1.89,0.26,2.68,0.78c0.79,0.52,1.43,1.19,1.93,2.01c0.36,0.57,0.62,1.19,0.78,1.85c0.16,0.66,0.2,1.33,0.11,2.01
		c-0.09,0.68-0.31,1.35-0.64,2.01c-0.34,0.66-0.85,1.26-1.53,1.79c-0.79,0.71-1.68,1.4-2.68,2.06c-1,0.66-2.15,1.24-3.45,1.74
		c-1.3,0.5-2.77,0.9-4.39,1.2c-1.63,0.3-3.45,0.46-5.49,0.46c-3.54,0-6.86-0.67-9.96-2.01c-3.11-1.34-5.82-3.17-8.14-5.49
		c-2.32-2.32-4.16-5.03-5.52-8.11c-1.36-3.09-2.04-6.4-2.04-9.94c0-3.54,0.68-6.86,2.04-9.96c1.35-3.11,3.19-5.81,5.52-8.11
		c2.32-2.31,5.03-4.13,8.14-5.46c3.11-1.34,6.43-2.01,9.96-2.01c3.5,0,6.79,0.66,9.88,1.98c3.09,1.32,5.8,3.12,8.14,5.38
		c2.34,2.27,4.2,4.94,5.57,8.01c1.38,3.07,2.08,6.36,2.12,9.85c0,1.64-0.53,2.97-1.58,3.99c-1.06,1.02-2.44,1.53-4.15,1.53H207.55z
		 M234,48.48c-0.39-1.46-1.01-2.79-1.85-3.97c-0.84-1.18-1.85-2.18-3.03-3c-1.18-0.82-2.5-1.45-3.96-1.88
		c-1.47-0.43-3.02-0.64-4.66-0.64c-1.64,0-3.19,0.23-4.63,0.67c-1.45,0.45-2.75,1.09-3.91,1.93c-1.16,0.84-2.15,1.84-2.97,3
		c-0.82,1.16-1.43,2.46-1.82,3.88H234z"/>
	<path class="st0" d="M266.19,30.48V72.1c0,0.79-0.15,1.54-0.46,2.25c-0.3,0.71-0.72,1.32-1.26,1.82c-0.53,0.5-1.15,0.9-1.85,1.2
		c-0.7,0.31-1.46,0.46-2.28,0.46c-0.78,0-1.54-0.15-2.25-0.46c-0.71-0.3-1.33-0.7-1.85-1.2c-0.52-0.5-0.93-1.11-1.23-1.82
		c-0.3-0.71-0.46-1.46-0.46-2.25V15c0-0.82,0.15-1.58,0.46-2.28c0.3-0.7,0.72-1.3,1.26-1.82c0.54-0.52,1.16-0.92,1.88-1.2
		c0.71-0.28,1.46-0.43,2.25-0.43c1.53,0,2.91,0.55,4.12,1.66l23.19,27.53l23.08-27.53c0.5-0.46,1.12-0.85,1.85-1.18
		c0.73-0.32,1.44-0.48,2.12-0.48h0.43c0.78,0.04,1.52,0.21,2.2,0.54c0.68,0.32,1.28,0.73,1.79,1.23c0.52,0.5,0.92,1.09,1.2,1.77
		c0.28,0.68,0.43,1.41,0.43,2.2v57.1c0,0.79-0.15,1.54-0.46,2.25c-0.3,0.71-0.72,1.32-1.26,1.82c-0.54,0.5-1.15,0.9-1.85,1.2
		c-0.69,0.31-1.45,0.46-2.27,0.46c-0.79,0-1.53-0.15-2.22-0.46c-0.7-0.3-1.31-0.7-1.85-1.2c-0.54-0.5-0.96-1.11-1.26-1.82
		c-0.31-0.71-0.46-1.46-0.46-2.25V30.42l-17.68,21c-0.5,0.5-1.09,0.92-1.77,1.26s-1.38,0.51-2.09,0.51c-1.39,0-2.62-0.57-3.7-1.71
		h-0.05v-0.05L266.19,30.48z"/>
	<path class="st0" d="M329.66,52.92c0-3.54,0.68-6.85,2.04-9.93c1.36-3.09,3.2-5.79,5.52-8.11s5.02-4.15,8.11-5.49
		c3.09-1.34,6.38-2.01,9.88-2.01c3.54,0,6.86,0.67,9.96,2.01c3.11,1.34,5.81,3.17,8.12,5.49c2.3,2.32,4.11,5.03,5.44,8.11
		c1.32,3.09,1.98,6.4,1.98,9.93v18.96c0,0.82-0.15,1.59-0.46,2.31c-0.3,0.71-0.72,1.34-1.26,1.88c-0.54,0.53-1.17,0.96-1.9,1.28
		c-0.73,0.32-1.51,0.48-2.33,0.48c-1.39,0-2.57-0.41-3.54-1.23c-0.96-0.82-1.61-1.85-1.93-3.11c-2.04,1.54-4.24,2.75-6.61,3.64
		c-2.37,0.89-4.87,1.34-7.47,1.34c-3.5,0-6.79-0.67-9.88-2.01c-3.09-1.34-5.79-3.17-8.11-5.49s-4.16-5.03-5.52-8.14
		C330.34,59.72,329.66,56.42,329.66,52.92z M341.29,52.92c0,1.89,0.37,3.69,1.1,5.38c0.73,1.7,1.73,3.18,3,4.44
		c1.27,1.27,2.74,2.27,4.42,3c1.68,0.73,3.48,1.1,5.41,1.1c1.93,0,3.74-0.37,5.44-1.1c1.7-0.73,3.17-1.73,4.42-3
		c1.25-1.27,2.23-2.75,2.95-4.44c0.71-1.7,1.07-3.49,1.07-5.38c0-1.93-0.36-3.74-1.07-5.44c-0.71-1.69-1.7-3.17-2.95-4.42
		c-1.25-1.25-2.72-2.24-4.42-2.97c-1.7-0.73-3.51-1.1-5.44-1.1c-1.89,0-3.69,0.37-5.38,1.1c-1.7,0.73-3.18,1.72-4.44,2.97
		c-1.27,1.25-2.27,2.72-3,4.42C341.65,49.18,341.29,50.99,341.29,52.92z"/>
	<path class="st0" d="M402.67,28.02h18.64c0.82,0,1.59,0.15,2.3,0.45c0.71,0.31,1.34,0.73,1.88,1.26c0.54,0.54,0.96,1.16,1.26,1.88
		c0.3,0.71,0.46,1.48,0.46,2.31c0,0.78-0.15,1.53-0.46,2.22c-0.3,0.7-0.72,1.3-1.26,1.82c-0.54,0.52-1.16,0.93-1.88,1.23
		s-1.48,0.45-2.3,0.45h-18.64v13.55c0,1.89,0.37,3.67,1.1,5.33c0.73,1.66,1.72,3.11,2.97,4.34c1.25,1.23,2.72,2.2,4.42,2.92
		c1.7,0.71,3.51,1.07,5.44,1.07c1.71,0,3.3-0.24,4.77-0.72c1.46-0.48,2.82-1.28,4.07-2.38c0.61-0.57,1.28-1.04,2.03-1.42
		c0.75-0.38,1.54-0.56,2.36-0.56c1.32,0,2.52,0.48,3.59,1.45c0.64,0.57,1.1,1.25,1.36,2.04c0.27,0.78,0.38,1.6,0.32,2.44
		c-0.05,0.84-0.26,1.65-0.61,2.44c-0.36,0.78-0.86,1.48-1.5,2.09c-2.14,2.07-4.61,3.64-7.39,4.69c-2.79,1.05-5.79,1.58-9,1.58
		c-3.54,0-6.85-0.66-9.93-1.98c-3.09-1.32-5.79-3.12-8.11-5.41c-2.32-2.28-4.15-4.97-5.49-8.06c-1.34-3.09-2.01-6.4-2.01-9.94V18.69
		c0-0.82,0.16-1.59,0.48-2.3c0.32-0.71,0.75-1.34,1.28-1.88c0.54-0.54,1.16-0.96,1.88-1.26c0.71-0.3,1.46-0.46,2.25-0.46
		c0.78,0,1.53,0.15,2.22,0.46c0.69,0.3,1.3,0.72,1.82,1.26c0.52,0.54,0.93,1.16,1.23,1.88c0.3,0.71,0.46,1.48,0.46,2.3V28.02z"/>
	<path class="st0" d="M442.14,16.18c0-0.89,0.17-1.73,0.51-2.52c0.34-0.78,0.79-1.46,1.36-2.04c0.57-0.57,1.25-1.03,2.04-1.36
		c0.78-0.34,1.61-0.51,2.46-0.51s1.68,0.17,2.47,0.51c0.78,0.34,1.47,0.8,2.06,1.36c0.59,0.57,1.05,1.25,1.39,2.04
		c0.34,0.79,0.51,1.63,0.51,2.52c0,0.86-0.17,1.67-0.51,2.44c-0.34,0.77-0.8,1.44-1.39,2.01c-0.59,0.57-1.28,1.03-2.06,1.36
		c-0.79,0.34-1.61,0.51-2.47,0.51s-1.68-0.17-2.46-0.51c-0.79-0.34-1.47-0.8-2.04-1.36c-0.57-0.57-1.03-1.24-1.36-2.01
		C442.31,17.85,442.14,17.03,442.14,16.18z M454.35,72.04c0,0.79-0.15,1.54-0.45,2.25c-0.31,0.71-0.71,1.33-1.23,1.85
		c-0.52,0.52-1.12,0.93-1.82,1.23c-0.7,0.31-1.46,0.46-2.28,0.46c-0.79,0-1.54-0.15-2.25-0.46c-0.71-0.3-1.34-0.71-1.88-1.23
		c-0.53-0.52-0.96-1.13-1.26-1.85c-0.3-0.71-0.45-1.46-0.45-2.25V33.8c0-0.78,0.16-1.53,0.48-2.22c0.32-0.7,0.75-1.31,1.28-1.85
		c0.54-0.53,1.16-0.95,1.88-1.26c0.71-0.3,1.48-0.45,2.3-0.45c0.82,0,1.57,0.15,2.25,0.45c0.68,0.31,1.28,0.73,1.79,1.26
		c0.52,0.54,0.92,1.15,1.2,1.85c0.28,0.7,0.43,1.44,0.43,2.22V72.04z"/>
</g>
</svg>
