<?xml version="1.0" encoding="utf-8"?>
<!-- Generator: Adobe Illustrator 23.0.3, SVG Export Plug-In . SVG Version: 6.00 Build 0)  -->
<svg version="1.1" id="Layer_1" xmlns="http://www.w3.org/2000/svg" xmlns:xlink="http://www.w3.org/1999/xlink" x="0px" y="0px"
	 viewBox="0 0 1056 1024" style="enable-background:new 0 0 1056 1024;" xml:space="preserve">
<style type="text/css">
	.st0{fill:#A2CE8A;}
	.st1{fill:#FFFFFF;}
</style>
<path class="st0" d="M684.69,310.33c-32.22-5.57-107.62,50.42-121.91,133.09c-7.37,42.65,7.55,84.85,25.78,116.08v0.01l0.01,0.01
	c11.31,19.38,23.38,35.23,33.03,43.16c0.61-1.7,1.27-3.54,1.95-5.45c0.24-0.68,0.5-1.42,0.76-2.13c0.4-1.14,0.83-2.31,1.24-3.51
	c0.43-1.19,0.86-2.41,1.29-3.66c0.22-0.63,0.45-1.29,0.69-1.93c2.61-7.43,5.49-15.71,8.51-24.54c0-0.01,0.01-0.02,0.01-0.02
	c0.79-2.32,1.59-4.68,2.39-7.05c-5.37-5.82-18.66-21.26-31.73-44.5c-16.22-28.83-15.22-50.24-15.22-50.24s5.4,20.9,19.48,39.32
	c12.95,16.94,30.84,35.01,37.2,25.86c0-0.01,0-0.01,0.01-0.02c3.23-10.11,6.36-20.25,9.21-30c0.09-0.28,0.17-0.56,0.24-0.83
	c-3.72-3.87-16.2-17.56-28.61-39.3c-14.17-24.83-13.41-43.33-13.41-43.33s4.77,18.02,17.04,33.87
	c11.21,14.48,26.64,29.9,32.18,22.29c0.17-0.68,0.39-1.45,0.55-2.13c1.11-4.63,2.16-9.14,3.15-13.58c0.18-0.8,0.35-1.59,0.53-2.39
	c0.95-4.28,1.85-8.49,2.68-12.62c0.01-0.03,0.02-0.07,0.02-0.11c-3.05-2.54-10.93-9.54-19.27-20.71
	c-10.22-13.68-11.14-24.69-11.14-24.69s4.15,10.34,12.6,18.82c7.81,7.86,18.26,15.99,20.82,10.66v-0.01
	c1.57-8.92,2.83-17.4,3.82-25.42c0-0.04,0.01-0.09,0.01-0.13c0.96-7.94,1.65-15.42,2.05-22.44c0.01-0.19,0.02-0.37,0.02-0.57
	c0.17-3.1,0.28-6.1,0.34-9.02c0.01-0.47,0.02-0.94,0.04-1.4c0.05-3.05,0.04-6.01-0.03-8.86c-0.01-0.24-0.02-0.47-0.03-0.72
	c-0.07-2.49-0.2-4.89-0.37-7.21c-0.04-0.64-0.09-1.28-0.15-1.91c-0.21-2.49-0.45-4.93-0.77-7.23v0.01v-0.01
	c0,0,16.22,30.44,10.94,87.55c0.11,6.61,8.92,2.09,16.73-4.2c7.94-6.39,12.42-14.73,12.42-14.73s-5.63,13.85-12.73,22.25
	c-5.55,6.57-15.59,11.73-18.44,13.11c-0.11,0.73-0.18,1.42-0.3,2.15c-0.72,4.39-1.62,9.01-2.62,13.72c-0.19,0.93-0.39,1.86-0.6,2.8
	c-1.02,4.7-2.13,9.48-3.38,14.4c0.84,7.85,15.38,3.1,28.95-4.36c14.95-8.21,24.78-20.66,24.78-20.66s-13.33,21.18-27.49,32.97
	c-10.15,8.45-26.23,13.85-32.75,15.81c-2.66,9.03-5.53,18.13-8.48,27.14c-0.01,0.01-0.01,0.01-0.01,0.02
	c-0.06,0.42-0.16,1.01-0.32,1.83c-3.1,14.9,17.77,8.61,37.06-1.85c19.3-10.45,32.05-26.39,32.05-26.39s-17.32,27.16-35.62,42.21
	c-16.45,13.53-44.89,20.85-45.95,21.12c-4.95,13.66-9.68,26.09-13.71,36.4c-0.49,1.24-0.96,2.45-1.42,3.63
	c-0.35,0.9-0.69,1.77-1.03,2.62c-0.74,1.88-1.46,3.68-2.13,5.35c-0.06,0.14-0.12,0.32-0.18,0.45c1.08,0.06,2.18,0.02,3.3-0.21
	c2.48-0.51,5.39-1.76,8.72-3.25h0.01l0.01-0.01c30.89-13.71,95.58-61.41,107.29-129.11C767.49,403.35,714.15,315.42,684.69,310.33"
	/>
<path class="st0" d="M426.77,420.98c-5.09-57.76-53.8-100.64-76.31-98.66c-20.59,1.82-62.38,59.31-57.86,110.5
	c4.18,47.3,45.98,83.87,66.47,95.08l0.01,0.01h0.01c2.21,1.21,4.15,2.24,5.83,2.73c0.76,0.22,1.5,0.27,2.24,0.29
	c-2.58-8.42-6.18-20.56-9.93-34.4c-0.78-0.27-19.9-6.94-30.43-17.18c-11.74-11.42-22.11-31.12-22.11-31.12s7.87,11.72,20.55,20.02
	c12.69,8.31,26.7,13.84,25.43,3.4c-0.07-0.55-0.1-0.93-0.11-1.22c-1.52-6.39-2.97-12.85-4.28-19.25
	c-4.34-1.7-15.12-6.32-21.66-12.77c-9.07-8.93-17.04-24.29-17.04-24.29s6.06,9.14,15.88,15.66c9.03,5.99,18.82,10.03,19.63,4.36
	c-1.24-7.55-2.2-14.78-2.72-21.37c-0.04-0.52-0.04-1-0.08-1.5c-1.88-1.11-8.49-5.24-11.94-10.09c-4.41-6.19-7.49-16.06-7.49-16.06
	s2.61,6.01,7.71,10.86c5.02,4.78,10.83,8.4,11.28,3.85c-0.35-39.63,12.57-59.67,12.57-59.67c-3.13,13.91-3.7,33.6-1.47,58.43
	c1.24,4.23,9.01-0.76,14.95-5.82c6.31-5.36,9.76-12.24,9.76-12.24s-1.26,7.54-9.09,16.37c-6.35,7.16-12.15,11.53-14.43,13.13
	c0.75,6.45,1.62,13.1,2.72,20.16c0.07,0.48,0.16,0.98,0.24,1.47c3.36,5.62,14.89-4.13,23.46-13.48
	c9.36-10.21,13.68-22.35,13.68-22.35s-0.54,12.79-11.72,29.07c-9.8,14.27-19.18,22.98-21.97,25.43c1.44,7.06,3.06,14.43,4.75,21.78
	c3.85,6.69,17.22-4.74,27.11-15.66c10.76-11.88,15.68-25.96,15.68-25.96s-0.54,14.79-13.37,33.72
	c-10.39,15.33-20.42,25.16-24.41,28.82c3.34,13.54,6.55,25.75,8.83,34.23c7.1-4.91,16.32-15.13,25.22-27.82l0.01-0.01v-0.01
	C416.7,478.98,429.41,450.78,426.77,420.98"/>
<path class="st0" d="M653.93,657.44c-0.34,0.16-0.68,0.31-1.02,0.45c-4.91,2.17-9.83,4.2-15.7,5.4c-3.2,0.66-6.53,0.99-9.89,0.99
	c-0.95,0-1.88-0.03-2.8-0.08c-9.63-0.5-19.15-3.73-28.25-9.58c-2.3-1.47-4.76-3.03-7.1-5.22c-35.39-33.13-60.41-97.99-72.19-156.85
	c-4.79-23.87-17.63-33.16-31.52-33.08c-7.05,0.04-15.12,1.42-21.03,6.69c-15.86,14.15-34.76,88.27-64.69,104.92
	c-30.16,16.79-73.72-9.86-82.28-18.2c-25.68-25.01-45.86-62.45-48.86-96.55c-0.91-10.31-0.39-20.29,1.02-29.74
	c-9.12,34.07-11.31,70.65-5.07,107.88c22.33,133.29,147.15,226.58,281.32,210.37c108.57-13.12,192.4-92.5,216.78-192.28
	C736.44,604.75,687.55,642.35,653.93,657.44"/>
<path class="st0" d="M552.4,385.38c22.56-35.89,13.15-82.4-0.84-91.2c-12.79-8.03-62.54,6.98-82.54,38.79
	c-18.48,29.4-10.3,69.18-3.32,84.77v0.01l0.01,0.01c0.75,1.69,1.42,3.14,2.18,4.17c0.35,0.47,0.76,0.82,1.19,1.16
	c2.21-6.04,5.48-14.71,9.42-24.43c-0.33-0.5-8.52-12.84-10.13-23.46c-1.78-11.84,0.88-27.9,0.88-27.9s-0.6,10.3,3.12,20.75
	c3.73,10.45,9.43,19.86,13.31,13.22c0.21-0.35,0.35-0.58,0.47-0.76c1.93-4.4,3.95-8.8,6.01-13.11c-1.77-2.9-6-10.37-6.96-17.01
	c-1.33-9.21,0.81-21.68,0.81-21.68s-0.52,8,2.33,16.14c2.62,7.48,6.53,14.17,9.51,11.22c2.61-4.95,5.25-9.58,7.86-13.64
	c0.21-0.32,0.42-0.6,0.62-0.91c-0.6-1.47-2.63-6.81-2.5-11.15c0.18-5.56,2.74-12.67,2.74-12.67s-1.13,4.65-0.31,9.73
	c0.81,5.01,2.6,9.68,4.87,7.23c17.32-23.24,33.7-29.2,33.7-29.2c-7.97,6.71-17.01,17.93-26.69,33.38
	c-1.14,3.01,5.59,3.54,11.29,3.22c6.03-0.34,11.09-2.82,11.09-2.82s-4.06,3.83-12.53,5.52c-6.86,1.36-12.17,1.34-14.2,1.27
	c-2.42,4.09-4.85,8.34-7.33,12.94c-0.17,0.31-0.34,0.64-0.51,0.96c-0.53,4.75,10.5,4.17,19.63,2.52c9.96-1.81,17.85-6.97,17.85-6.97
	s-5.97,7.21-19.68,11.75c-12.01,3.98-21.34,4.9-24.04,5.1c-2.28,4.74-4.6,9.76-6.86,14.78c-0.72,5.6,12.12,4.85,22.71,2.86
	c11.52-2.16,20.61-8.18,20.61-8.18s-6.86,8.38-22.7,13.72c-12.83,4.34-23.02,5.63-26.96,6c-4.04,9.36-7.56,17.9-9.99,23.84
	c6.31,0.28,16.19-1.6,26.99-5.06h0.01C520.89,414.71,540.76,403.9,552.4,385.38"/>
<path class="st1" d="M433.92,304.33C433.94,304.32,433.89,304.35,433.92,304.33c-0.1-0.23-0.19-0.46-0.29-0.69
	c-0.07-0.19-0.15-0.38-0.23-0.57c-4.12-9.89-8.13-19.21-14.56-33.91c-49.76-113.71-81.05-156.38-94.42-171.2
	c0.14-0.93,0.25-1.87,0.28-2.84c0.37-12.67-9.59-23.35-22.27-23.62c-3.2-0.07-5.76,0.52-7.01,0.98
	c-44.87-44.06-101.88-66-104.84-66.43c-7.22-1.08-17.28,17.54-18.35,24.76c-1.07,7.23-2.26,12.79,11.14,15.02
	c0.63,0.1,56.58,8.75,95.97,43.73c-0.29,1.37-0.49,2.77-0.53,4.22c-0.37,12.67,9.6,23.25,22.27,23.62c1.33,0.04,2.63-0.06,3.91-0.24
	c10.63,12.21,40.55,52.47,88.9,162.94c6.27,14.33,10.42,23.87,14.38,33.27c0.14,0.38,0.29,0.74,0.46,1.1
	c0.09,0.22,0.19,0.44,0.27,0.65c0.02-0.01-0.02,0.01,0,0c2.31,4.25,6.82,7.13,11.99,7.13c7.52,0,13.61-6.09,13.61-13.61
	C434.6,307.14,434.36,305.68,433.92,304.33"/>
<g>
	<path class="st1" d="M33.61,906.05v97.59c0,1.85-0.35,3.6-1.06,5.28c-0.72,1.68-1.7,3.1-2.95,4.27c-1.26,1.17-2.7,2.11-4.34,2.82
		c-1.63,0.72-3.41,1.07-5.34,1.07c-1.84,0-3.6-0.35-5.27-1.07c-1.68-0.71-3.12-1.65-4.34-2.82c-1.21-1.17-2.18-2.59-2.89-4.27
		s-1.06-3.43-1.06-5.28V869.76c0-1.93,0.35-3.7,1.06-5.34c0.71-1.63,1.7-3.05,2.95-4.27c1.26-1.21,2.72-2.16,4.4-2.82
		s3.43-1.01,5.28-1.01c3.6,0,6.82,1.3,9.67,3.89l54.38,64.56l54.13-64.56c1.17-1.09,2.61-2,4.33-2.76c1.72-0.75,3.37-1.13,4.96-1.13
		h1c1.85,0.09,3.56,0.5,5.15,1.26c1.59,0.75,2.99,1.72,4.21,2.89c1.21,1.17,2.16,2.56,2.83,4.14c0.67,1.59,1,3.31,1,5.15v133.89
		c0,1.85-0.36,3.6-1.07,5.28s-1.69,3.1-2.95,4.27c-1.26,1.17-2.7,2.11-4.33,2.82c-1.63,0.72-3.41,1.07-5.34,1.07
		c-1.85,0-3.58-0.35-5.21-1.07c-1.63-0.71-3.08-1.65-4.34-2.82c-1.26-1.17-2.24-2.59-2.95-4.27c-0.71-1.68-1.07-3.43-1.07-5.28
		v-97.71l-41.44,49.23c-1.18,1.18-2.56,2.16-4.15,2.95c-1.59,0.8-3.22,1.2-4.9,1.2c-3.26,0-6.15-1.34-8.67-4.02h-0.12v-0.13
		L33.61,906.05z"/>
	<path class="st1" d="M182.44,958.68c0-8.29,1.59-16.05,4.77-23.3c3.18-7.24,7.49-13.59,12.94-19.03
		c5.44-5.44,11.78-9.74,19.03-12.87c7.24-3.14,14.96-4.71,23.17-4.71c8.28,0,16.08,1.57,23.36,4.71
		c7.29,3.14,13.63,7.43,19.03,12.87c5.4,5.44,9.65,11.79,12.75,19.03c3.1,7.25,4.65,15.01,4.65,23.3v44.46
		c0,1.93-0.36,3.73-1.07,5.4s-1.69,3.14-2.95,4.4c-1.26,1.25-2.74,2.26-4.46,3.01c-1.72,0.75-3.54,1.13-5.47,1.13
		c-3.27,0-6.03-0.96-8.29-2.89c-2.26-1.93-3.77-4.35-4.52-7.28c-4.77,3.6-9.95,6.45-15.51,8.54c-5.58,2.1-11.41,3.14-17.52,3.14
		c-8.21,0-15.94-1.57-23.17-4.71c-7.25-3.14-13.59-7.43-19.03-12.87c-5.45-5.44-9.76-11.81-12.94-19.09
		C184.03,974.63,182.44,966.89,182.44,958.68z M209.69,958.68c0,4.44,0.86,8.65,2.57,12.63c1.72,3.98,4.06,7.45,7.04,10.42
		c2.97,2.98,6.43,5.32,10.36,7.03c3.94,1.72,8.16,2.57,12.69,2.57c4.52,0,8.77-0.86,12.75-2.57c3.97-1.71,7.43-4.06,10.36-7.03
		c2.93-2.97,5.23-6.44,6.91-10.42c1.68-3.98,2.51-8.19,2.51-12.63c0-4.52-0.84-8.77-2.51-12.75c-1.68-3.97-3.98-7.43-6.91-10.36
		c-2.93-2.93-6.39-5.25-10.36-6.97c-3.98-1.71-8.23-2.57-12.75-2.57c-4.44,0-8.65,0.86-12.63,2.57c-3.98,1.72-7.45,4.04-10.42,6.97
		c-2.98,2.93-5.32,6.39-7.04,10.36C210.56,949.91,209.69,954.16,209.69,958.68z"/>
	<path class="st1" d="M353.63,900.28h43.71c1.93,0,3.72,0.36,5.4,1.06c1.68,0.72,3.14,1.7,4.4,2.95c1.26,1.26,2.24,2.73,2.95,4.4
		c0.71,1.68,1.07,3.48,1.07,5.4c0,1.84-0.36,3.58-1.07,5.21c-0.71,1.63-1.69,3.05-2.95,4.27s-2.72,2.18-4.4,2.89
		c-1.68,0.71-3.47,1.06-5.4,1.06h-43.71v31.78c0,4.44,0.86,8.6,2.57,12.5c1.71,3.89,4.04,7.28,6.97,10.17
		c2.93,2.88,6.38,5.17,10.36,6.84c3.98,1.68,8.22,2.51,12.75,2.51c4.02,0,7.74-0.56,11.18-1.69c3.43-1.13,6.61-2.99,9.54-5.59
		c1.43-1.34,3.02-2.45,4.77-3.33c1.76-0.88,3.6-1.32,5.53-1.32c3.1,0,5.9,1.13,8.42,3.39c1.51,1.34,2.57,2.93,3.2,4.77
		c0.63,1.84,0.88,3.75,0.75,5.71c-0.12,1.97-0.61,3.87-1.45,5.71c-0.84,1.84-2.01,3.47-3.52,4.89c-5.02,4.86-10.8,8.53-17.33,10.99
		c-6.53,2.47-13.56,3.7-21.1,3.7c-8.29,0-16.06-1.55-23.3-4.65c-7.25-3.1-13.59-7.32-19.03-12.69c-5.44-5.36-9.73-11.66-12.87-18.9
		c-3.14-7.25-4.71-15.01-4.71-23.3v-80.63c0-1.93,0.38-3.72,1.13-5.4c0.75-1.68,1.76-3.14,3.02-4.4c1.25-1.26,2.71-2.24,4.39-2.95
		c1.68-0.71,3.44-1.07,5.28-1.07c1.84,0,3.58,0.36,5.21,1.07c1.63,0.71,3.05,1.69,4.27,2.95c1.21,1.26,2.18,2.72,2.89,4.4
		s1.07,3.47,1.07,5.4V900.28z"/>
	<path class="st1" d="M468.8,970.86c1.09,3.1,2.61,5.93,4.58,8.48c1.97,2.56,4.25,4.73,6.84,6.53c2.6,1.8,5.45,3.18,8.54,4.14
		c3.1,0.97,6.36,1.45,9.8,1.45c8.62,0,15.41-2.26,20.34-6.78c1.67-1.17,3.31-2.03,4.9-2.57c1.59-0.54,3.1-0.81,4.52-0.81
		c2.34,0,4.43,0.61,6.28,1.82c1.85,1.21,3.35,2.78,4.52,4.71c0.84,1.34,1.45,2.79,1.82,4.34s0.46,3.12,0.26,4.71
		c-0.21,1.59-0.72,3.16-1.51,4.71c-0.8,1.55-1.99,2.95-3.58,4.21c-1.85,1.68-3.94,3.29-6.28,4.83c-2.34,1.55-5.04,2.91-8.1,4.08
		c-3.05,1.17-6.49,2.11-10.29,2.82c-3.81,0.71-8.1,1.07-12.87,1.07c-8.29,0-16.08-1.57-23.36-4.71
		c-7.28-3.14-13.65-7.43-19.09-12.87c-5.45-5.44-9.76-11.79-12.94-19.03c-3.19-7.25-4.77-15.01-4.77-23.3
		c0-8.29,1.59-16.08,4.77-23.36c3.18-7.29,7.49-13.63,12.94-19.03c5.44-5.4,11.81-9.67,19.09-12.81c7.29-3.14,15.07-4.71,23.36-4.71
		c8.2,0,15.93,1.55,23.17,4.65s13.6,7.31,19.09,12.62c5.48,5.32,9.84,11.58,13.06,18.78c3.23,7.2,4.88,14.9,4.97,23.11
		c0,3.86-1.24,6.97-3.7,9.36c-2.48,2.39-5.72,3.58-9.74,3.58H468.8z M530.84,948.26c-0.92-3.43-2.37-6.53-4.34-9.3
		c-1.97-2.76-4.34-5.1-7.09-7.03c-2.76-1.93-5.86-3.39-9.29-4.4c-3.44-1-7.08-1.51-10.93-1.51s-7.47,0.53-10.86,1.57
		c-3.39,1.04-6.44,2.56-9.16,4.52c-2.73,1.97-5.05,4.32-6.97,7.03c-1.93,2.73-3.35,5.76-4.27,9.11H530.84z"/>
	<path class="st1" d="M606.32,906.05v97.59c0,1.85-0.36,3.6-1.07,5.28c-0.71,1.68-1.69,3.1-2.95,4.27c-1.25,1.17-2.7,2.11-4.33,2.82
		c-1.63,0.72-3.41,1.07-5.34,1.07c-1.84,0-3.6-0.35-5.28-1.07c-1.68-0.71-3.12-1.65-4.33-2.82c-1.21-1.17-2.18-2.59-2.89-4.27
		s-1.07-3.43-1.07-5.28V869.76c0-1.93,0.36-3.7,1.07-5.34c0.71-1.63,1.69-3.05,2.95-4.27c1.26-1.21,2.72-2.16,4.4-2.82
		s3.43-1.01,5.28-1.01c3.6,0,6.82,1.3,9.67,3.89l54.38,64.56l54.13-64.56c1.17-1.09,2.62-2,4.34-2.76c1.71-0.75,3.37-1.13,4.96-1.13
		h1c1.84,0.09,3.56,0.5,5.15,1.26s2.99,1.72,4.21,2.89c1.21,1.17,2.16,2.56,2.82,4.14c0.67,1.59,1.01,3.31,1.01,5.15v133.89
		c0,1.85-0.36,3.6-1.07,5.28c-0.71,1.68-1.69,3.1-2.95,4.27c-1.26,1.17-2.7,2.11-4.34,2.82c-1.63,0.72-3.41,1.07-5.33,1.07
		c-1.85,0-3.58-0.35-5.22-1.07c-1.63-0.71-3.07-1.65-4.33-2.82c-1.26-1.17-2.24-2.59-2.95-4.27c-0.72-1.68-1.07-3.43-1.07-5.28
		v-97.71l-41.45,49.23c-1.17,1.18-2.55,2.16-4.14,2.95c-1.59,0.8-3.22,1.2-4.9,1.2c-3.26,0-6.15-1.34-8.67-4.02h-0.12v-0.13
		L606.32,906.05z"/>
	<path class="st1" d="M755.15,958.68c0-8.29,1.59-16.05,4.77-23.3c3.18-7.24,7.49-13.59,12.94-19.03
		c5.44-5.44,11.78-9.74,19.03-12.87c7.25-3.14,14.96-4.71,23.17-4.71c8.29,0,16.08,1.57,23.36,4.71
		c7.29,3.14,13.63,7.43,19.03,12.87c5.4,5.44,9.64,11.79,12.75,19.03c3.1,7.25,4.65,15.01,4.65,23.3v44.46
		c0,1.93-0.36,3.73-1.07,5.4c-0.71,1.68-1.69,3.14-2.95,4.4c-1.26,1.25-2.74,2.26-4.46,3.01c-1.72,0.75-3.54,1.13-5.47,1.13
		c-3.26,0-6.02-0.96-8.29-2.89c-2.26-1.93-3.77-4.35-4.52-7.28c-4.77,3.6-9.94,6.45-15.51,8.54c-5.57,2.1-11.41,3.14-17.52,3.14
		c-8.21,0-15.93-1.57-23.17-4.71c-7.25-3.14-13.59-7.43-19.03-12.87c-5.44-5.44-9.75-11.81-12.94-19.09
		C756.74,974.63,755.15,966.89,755.15,958.68z M782.4,958.68c0,4.44,0.86,8.65,2.57,12.63c1.71,3.98,4.06,7.45,7.03,10.42
		c2.97,2.98,6.43,5.32,10.36,7.03c3.94,1.72,8.16,2.57,12.69,2.57c4.52,0,8.77-0.86,12.75-2.57c3.98-1.71,7.43-4.06,10.36-7.03
		c2.93-2.97,5.23-6.44,6.91-10.42c1.67-3.98,2.51-8.19,2.51-12.63c0-4.52-0.84-8.77-2.51-12.75c-1.68-3.97-3.98-7.43-6.91-10.36
		c-2.93-2.93-6.38-5.25-10.36-6.97c-3.98-1.71-8.23-2.57-12.75-2.57c-4.44,0-8.65,0.86-12.63,2.57c-3.98,1.72-7.45,4.04-10.42,6.97
		c-2.98,2.93-5.32,6.39-7.03,10.36C783.26,949.91,782.4,954.16,782.4,958.68z"/>
	<path class="st1" d="M926.33,900.28h43.71c1.93,0,3.72,0.36,5.4,1.06c1.68,0.72,3.14,1.7,4.4,2.95c1.26,1.26,2.24,2.73,2.95,4.4
		c0.71,1.68,1.07,3.48,1.07,5.4c0,1.84-0.36,3.58-1.07,5.21c-0.71,1.63-1.69,3.05-2.95,4.27c-1.26,1.21-2.72,2.18-4.4,2.89
		c-1.68,0.71-3.47,1.06-5.4,1.06h-43.71v31.78c0,4.44,0.86,8.6,2.57,12.5c1.72,3.89,4.04,7.28,6.97,10.17
		c2.93,2.88,6.38,5.17,10.36,6.84c3.98,1.68,8.23,2.51,12.75,2.51c4.02,0,7.74-0.56,11.18-1.69c3.43-1.13,6.61-2.99,9.55-5.59
		c1.42-1.34,3.01-2.45,4.77-3.33c1.76-0.88,3.6-1.32,5.53-1.32c3.1,0,5.9,1.13,8.42,3.39c1.51,1.34,2.57,2.93,3.2,4.77
		c0.63,1.84,0.88,3.75,0.75,5.71c-0.12,1.97-0.61,3.87-1.44,5.71c-0.84,1.84-2.01,3.47-3.52,4.89c-5.03,4.86-10.8,8.53-17.33,10.99
		c-6.53,2.47-13.57,3.7-21.1,3.7c-8.29,0-16.06-1.55-23.3-4.65c-7.25-3.1-13.59-7.32-19.03-12.69c-5.45-5.36-9.74-11.66-12.87-18.9
		c-3.14-7.25-4.71-15.01-4.71-23.3v-80.63c0-1.93,0.38-3.72,1.14-5.4c0.75-1.68,1.76-3.14,3.01-4.4c1.26-1.26,2.72-2.24,4.4-2.95
		c1.67-0.71,3.43-1.07,5.27-1.07c1.84,0,3.58,0.36,5.22,1.07c1.63,0.71,3.05,1.69,4.27,2.95c1.21,1.26,2.17,2.72,2.88,4.4
		c0.71,1.68,1.07,3.47,1.07,5.4V900.28z"/>
	<path class="st1" d="M1018.89,872.52c0-2.09,0.39-4.06,1.2-5.9c0.8-1.84,1.86-3.43,3.2-4.77c1.34-1.34,2.93-2.4,4.77-3.2
		c1.84-0.8,3.77-1.2,5.78-1.2s3.94,0.4,5.78,1.2c1.84,0.8,3.45,1.86,4.83,3.2c1.38,1.34,2.47,2.93,3.26,4.77
		c0.8,1.85,1.2,3.81,1.2,5.9c0,2.01-0.4,3.92-1.2,5.71c-0.8,1.8-1.88,3.37-3.26,4.71c-1.38,1.34-2.99,2.4-4.83,3.2
		c-1.85,0.8-3.77,1.2-5.78,1.2s-3.94-0.4-5.78-1.2c-1.85-0.8-3.44-1.86-4.77-3.2c-1.34-1.34-2.4-2.91-3.2-4.71
		C1019.29,876.44,1018.89,874.53,1018.89,872.52z M1047.53,1003.51c0,1.85-0.35,3.6-1.06,5.28c-0.72,1.68-1.68,3.12-2.89,4.34
		s-2.64,2.17-4.27,2.88c-1.63,0.72-3.41,1.07-5.34,1.07c-1.85,0-3.6-0.35-5.28-1.07c-1.68-0.71-3.14-1.67-4.4-2.88
		c-1.25-1.21-2.24-2.66-2.95-4.34c-0.71-1.68-1.06-3.43-1.06-5.28v-89.67c0-1.84,0.38-3.58,1.13-5.21s1.76-3.08,3.01-4.34
		c1.26-1.25,2.72-2.23,4.4-2.95c1.68-0.7,3.47-1.06,5.4-1.06c1.93,0,3.69,0.36,5.28,1.06c1.59,0.72,2.99,1.7,4.21,2.95
		c1.21,1.26,2.15,2.7,2.82,4.34c0.67,1.63,1,3.37,1,5.21V1003.51z"/>
</g>
</svg>
