<?xml version="1.0" encoding="utf-8"?>
<!-- Generator: Adobe Illustrator 23.0.3, SVG Export Plug-In . SVG Version: 6.00 Build 0)  -->
<svg version="1.1" id="Layer_1" xmlns="http://www.w3.org/2000/svg" xmlns:xlink="http://www.w3.org/1999/xlink" x="0px" y="0px"
	 viewBox="0 0 652 133" style="enable-background:new 0 0 652 133;" xml:space="preserve">
<style type="text/css">
	.st0{fill:#FFFFFF;}
	.st1{fill:#A2CE8A;}
</style>
<g>
	<path class="st0" d="M152.3,75.85v47.64c0,0.9-0.17,1.76-0.52,2.58c-0.35,0.82-0.83,1.51-1.44,2.08c-0.61,0.57-1.32,1.03-2.12,1.38
		c-0.8,0.35-1.67,0.52-2.61,0.52c-0.9,0-1.76-0.17-2.57-0.52c-0.82-0.35-1.52-0.81-2.12-1.38c-0.59-0.57-1.06-1.27-1.41-2.08
		c-0.35-0.82-0.52-1.68-0.52-2.58V58.13c0-0.94,0.17-1.81,0.52-2.61s0.83-1.49,1.44-2.08c0.61-0.59,1.33-1.05,2.15-1.38
		c0.82-0.33,1.68-0.49,2.58-0.49c1.76,0,3.33,0.63,4.72,1.9l26.55,31.52l26.43-31.52c0.57-0.53,1.27-0.98,2.11-1.35
		c0.84-0.37,1.65-0.55,2.42-0.55h0.49c0.9,0.04,1.74,0.25,2.51,0.61c0.78,0.37,1.46,0.84,2.05,1.41s1.05,1.25,1.38,2.02
		c0.33,0.78,0.49,1.62,0.49,2.51v65.37c0,0.9-0.17,1.76-0.52,2.58c-0.35,0.82-0.83,1.51-1.44,2.08c-0.61,0.57-1.32,1.03-2.11,1.38
		c-0.8,0.35-1.67,0.52-2.61,0.52c-0.9,0-1.75-0.17-2.54-0.52c-0.8-0.35-1.5-0.81-2.12-1.38c-0.61-0.57-1.09-1.27-1.44-2.08
		c-0.35-0.82-0.52-1.68-0.52-2.58V75.79l-20.23,24.04c-0.58,0.58-1.25,1.05-2.03,1.44c-0.78,0.39-1.57,0.58-2.39,0.58
		c-1.59,0-3-0.66-4.23-1.96h-0.06v-0.06L152.3,75.85z"/>
	<path class="st0" d="M224.97,101.54c0-4.05,0.77-7.84,2.33-11.37c1.55-3.53,3.66-6.63,6.32-9.29c2.66-2.66,5.75-4.75,9.29-6.29
		c3.53-1.53,7.31-2.3,11.31-2.3c4.04,0,7.85,0.76,11.4,2.3c3.56,1.53,6.65,3.63,9.29,6.29c2.64,2.66,4.71,5.76,6.22,9.29
		c1.51,3.54,2.27,7.33,2.27,11.37v21.71c0,0.94-0.17,1.82-0.52,2.64c-0.35,0.82-0.83,1.53-1.44,2.15c-0.61,0.61-1.34,1.1-2.18,1.47
		c-0.84,0.37-1.73,0.55-2.67,0.55c-1.6,0-2.94-0.47-4.05-1.41c-1.1-0.94-1.84-2.12-2.21-3.56c-2.33,1.76-4.86,3.15-7.57,4.17
		c-2.72,1.02-5.57,1.53-8.55,1.53c-4.01,0-7.78-0.76-11.31-2.3c-3.54-1.53-6.63-3.63-9.29-6.29c-2.66-2.66-4.76-5.76-6.32-9.32
		C225.74,109.33,224.97,105.55,224.97,101.54z M238.27,101.54c0,2.17,0.42,4.22,1.26,6.16c0.84,1.94,1.98,3.64,3.44,5.09
		c1.45,1.45,3.14,2.6,5.06,3.43c1.92,0.84,3.98,1.26,6.19,1.26c2.21,0,4.28-0.42,6.22-1.26c1.94-0.84,3.63-1.98,5.06-3.43
		c1.43-1.45,2.55-3.15,3.37-5.09c0.82-1.94,1.23-4,1.23-6.16c0-2.21-0.41-4.28-1.23-6.22c-0.82-1.94-1.94-3.63-3.37-5.06
		c-1.43-1.43-3.12-2.56-5.06-3.4c-1.94-0.84-4.02-1.26-6.22-1.26c-2.17,0-4.22,0.42-6.16,1.26c-1.94,0.84-3.64,1.97-5.09,3.4
		c-1.45,1.43-2.6,3.12-3.44,5.06C238.69,97.26,238.27,99.34,238.27,101.54z"/>
	<path class="st0" d="M308.55,73.03h21.34c0.94,0,1.82,0.17,2.64,0.52c0.82,0.35,1.53,0.83,2.15,1.44c0.61,0.61,1.09,1.33,1.44,2.15
		c0.35,0.82,0.52,1.7,0.52,2.64c0,0.9-0.17,1.75-0.52,2.54s-0.83,1.49-1.44,2.08c-0.61,0.59-1.33,1.06-2.15,1.41
		c-0.82,0.35-1.7,0.52-2.64,0.52h-21.34v15.52c0,2.17,0.42,4.2,1.26,6.1c0.84,1.9,1.97,3.56,3.4,4.97c1.43,1.41,3.12,2.52,5.06,3.34
		c1.94,0.82,4.01,1.22,6.22,1.22c1.96,0,3.78-0.28,5.46-0.83c1.68-0.55,3.23-1.46,4.66-2.73c0.7-0.65,1.47-1.19,2.33-1.62
		c0.86-0.43,1.76-0.64,2.7-0.64c1.51,0,2.88,0.55,4.11,1.65c0.74,0.66,1.26,1.43,1.56,2.33c0.31,0.9,0.43,1.83,0.37,2.79
		c-0.06,0.96-0.3,1.89-0.71,2.79c-0.41,0.9-0.98,1.7-1.72,2.39c-2.45,2.37-5.27,4.16-8.46,5.37c-3.19,1.21-6.62,1.81-10.3,1.81
		c-4.05,0-7.84-0.76-11.37-2.27c-3.54-1.51-6.63-3.58-9.29-6.19c-2.66-2.62-4.75-5.69-6.28-9.23c-1.53-3.54-2.3-7.33-2.3-11.38
		V62.36c0-0.94,0.18-1.82,0.55-2.64c0.37-0.82,0.86-1.53,1.47-2.15c0.61-0.61,1.33-1.09,2.14-1.44c0.82-0.35,1.68-0.52,2.58-0.52
		c0.9,0,1.75,0.17,2.54,0.52c0.8,0.35,1.49,0.83,2.08,1.44c0.59,0.61,1.06,1.33,1.41,2.15c0.35,0.82,0.52,1.7,0.52,2.64V73.03z"/>
	<path class="st0" d="M364.77,107.49c0.53,1.52,1.27,2.89,2.24,4.14c0.96,1.25,2.08,2.31,3.34,3.19c1.27,0.88,2.66,1.55,4.17,2.02
		c1.51,0.47,3.1,0.71,4.78,0.71c4.21,0,7.52-1.1,9.93-3.31c0.82-0.57,1.62-0.99,2.39-1.26c0.78-0.26,1.51-0.4,2.21-0.4
		c1.14,0,2.16,0.3,3.07,0.89s1.64,1.36,2.21,2.3c0.41,0.66,0.71,1.36,0.89,2.12c0.18,0.76,0.23,1.52,0.12,2.3
		c-0.1,0.78-0.35,1.54-0.74,2.3c-0.39,0.76-0.97,1.44-1.75,2.05c-0.9,0.82-1.92,1.6-3.07,2.36c-1.14,0.76-2.46,1.42-3.96,1.99
		c-1.49,0.57-3.17,1.03-5.03,1.38c-1.86,0.35-3.96,0.52-6.29,0.52c-4.05,0-7.85-0.76-11.41-2.3c-3.56-1.53-6.66-3.63-9.32-6.29
		c-2.66-2.66-4.76-5.76-6.32-9.29c-1.56-3.54-2.33-7.33-2.33-11.38c0-4.05,0.77-7.85,2.33-11.4c1.55-3.56,3.66-6.65,6.32-9.29
		c2.66-2.64,5.76-4.72,9.32-6.26c3.56-1.53,7.36-2.3,11.41-2.3c4.01,0,7.78,0.76,11.31,2.27c3.53,1.51,6.64,3.57,9.32,6.16
		c2.67,2.6,4.8,5.65,6.37,9.17c1.58,3.52,2.38,7.28,2.43,11.28c0,1.88-0.6,3.4-1.81,4.57c-1.21,1.17-2.79,1.75-4.76,1.75H364.77z
		 M395.06,96.45c-0.45-1.68-1.16-3.19-2.12-4.54c-0.96-1.35-2.12-2.49-3.46-3.43c-1.35-0.94-2.86-1.65-4.54-2.15
		c-1.68-0.49-3.46-0.74-5.34-0.74s-3.65,0.26-5.3,0.77c-1.65,0.51-3.15,1.25-4.47,2.21c-1.33,0.96-2.46,2.11-3.4,3.43
		c-0.94,1.33-1.64,2.81-2.08,4.45H395.06z"/>
	<path class="st0" d="M431.92,75.85v47.64c0,0.9-0.17,1.76-0.52,2.58c-0.35,0.82-0.83,1.51-1.44,2.08
		c-0.61,0.57-1.32,1.03-2.11,1.38c-0.8,0.35-1.67,0.52-2.61,0.52c-0.9,0-1.76-0.17-2.58-0.52c-0.82-0.35-1.52-0.81-2.11-1.38
		c-0.59-0.57-1.06-1.27-1.41-2.08c-0.35-0.82-0.52-1.68-0.52-2.58V58.13c0-0.94,0.17-1.81,0.52-2.61s0.83-1.49,1.44-2.08
		c0.61-0.59,1.33-1.05,2.15-1.38c0.82-0.33,1.68-0.49,2.58-0.49c1.76,0,3.33,0.63,4.72,1.9l26.55,31.52l26.43-31.52
		c0.57-0.53,1.28-0.98,2.12-1.35c0.84-0.37,1.65-0.55,2.42-0.55h0.49c0.9,0.04,1.74,0.25,2.51,0.61c0.78,0.37,1.46,0.84,2.05,1.41
		c0.59,0.57,1.05,1.25,1.38,2.02c0.33,0.78,0.49,1.62,0.49,2.51v65.37c0,0.9-0.17,1.76-0.52,2.58c-0.35,0.82-0.83,1.51-1.44,2.08
		c-0.61,0.57-1.32,1.03-2.12,1.38c-0.79,0.35-1.66,0.52-2.6,0.52c-0.9,0-1.75-0.17-2.55-0.52c-0.8-0.35-1.5-0.81-2.11-1.38
		c-0.61-0.57-1.09-1.27-1.44-2.08c-0.35-0.82-0.52-1.68-0.52-2.58V75.79l-20.24,24.04c-0.57,0.58-1.25,1.05-2.02,1.44
		c-0.78,0.39-1.57,0.58-2.39,0.58c-1.59,0-3-0.66-4.23-1.96h-0.06v-0.06L431.92,75.85z"/>
	<path class="st0" d="M504.58,101.54c0-4.05,0.78-7.84,2.33-11.37c1.55-3.53,3.66-6.63,6.32-9.29c2.66-2.66,5.75-4.75,9.29-6.29
		c3.54-1.53,7.31-2.3,11.31-2.3c4.05,0,7.85,0.76,11.4,2.3c3.56,1.53,6.65,3.63,9.29,6.29c2.64,2.66,4.71,5.76,6.22,9.29
		c1.51,3.54,2.27,7.33,2.27,11.37v21.71c0,0.94-0.17,1.82-0.52,2.64c-0.35,0.82-0.83,1.53-1.44,2.15c-0.61,0.61-1.34,1.1-2.18,1.47
		c-0.84,0.37-1.73,0.55-2.67,0.55c-1.59,0-2.94-0.47-4.05-1.41c-1.1-0.94-1.84-2.12-2.21-3.56c-2.33,1.76-4.85,3.15-7.57,4.17
		c-2.72,1.02-5.57,1.53-8.55,1.53c-4.01,0-7.78-0.76-11.31-2.3c-3.54-1.53-6.63-3.63-9.29-6.29c-2.66-2.66-4.76-5.76-6.32-9.32
		C505.35,109.33,504.58,105.55,504.58,101.54z M517.88,101.54c0,2.17,0.42,4.22,1.26,6.16c0.84,1.94,1.98,3.64,3.43,5.09
		c1.45,1.45,3.14,2.6,5.06,3.43c1.92,0.84,3.98,1.26,6.19,1.26c2.21,0,4.28-0.42,6.22-1.26c1.94-0.84,3.63-1.98,5.06-3.43
		c1.43-1.45,2.56-3.15,3.37-5.09c0.82-1.94,1.22-4,1.22-6.16c0-2.21-0.41-4.28-1.22-6.22c-0.82-1.94-1.94-3.63-3.37-5.06
		c-1.43-1.43-3.12-2.56-5.06-3.4c-1.94-0.84-4.02-1.26-6.22-1.26c-2.17,0-4.22,0.42-6.16,1.26c-1.94,0.84-3.64,1.97-5.09,3.4
		c-1.45,1.43-2.6,3.12-3.43,5.06C518.3,97.26,517.88,99.34,517.88,101.54z"/>
	<path class="st0" d="M588.15,73.03h21.34c0.94,0,1.82,0.17,2.64,0.52c0.82,0.35,1.53,0.83,2.15,1.44c0.61,0.61,1.09,1.33,1.44,2.15
		c0.35,0.82,0.52,1.7,0.52,2.64c0,0.9-0.17,1.75-0.52,2.54s-0.83,1.49-1.44,2.08c-0.61,0.59-1.33,1.06-2.15,1.41
		c-0.82,0.35-1.7,0.52-2.64,0.52h-21.34v15.52c0,2.17,0.42,4.2,1.26,6.1c0.84,1.9,1.97,3.56,3.4,4.97c1.43,1.41,3.12,2.52,5.06,3.34
		c1.94,0.82,4.02,1.22,6.22,1.22c1.96,0,3.78-0.28,5.46-0.83c1.68-0.55,3.23-1.46,4.66-2.73c0.69-0.65,1.47-1.19,2.33-1.62
		c0.86-0.43,1.76-0.64,2.7-0.64c1.51,0,2.88,0.55,4.11,1.65c0.74,0.66,1.26,1.43,1.56,2.33c0.31,0.9,0.43,1.83,0.37,2.79
		c-0.06,0.96-0.3,1.89-0.7,2.79c-0.41,0.9-0.98,1.7-1.72,2.39c-2.46,2.37-5.27,4.16-8.46,5.37c-3.19,1.21-6.62,1.81-10.3,1.81
		c-4.05,0-7.84-0.76-11.37-2.27c-3.54-1.51-6.63-3.58-9.29-6.19c-2.66-2.62-4.75-5.69-6.29-9.23c-1.53-3.54-2.3-7.33-2.3-11.38
		V62.36c0-0.94,0.18-1.82,0.55-2.64c0.37-0.82,0.86-1.53,1.47-2.15c0.61-0.61,1.33-1.09,2.15-1.44c0.82-0.35,1.68-0.52,2.57-0.52
		s1.75,0.17,2.55,0.52c0.79,0.35,1.49,0.83,2.08,1.44c0.59,0.61,1.06,1.33,1.41,2.15c0.35,0.82,0.52,1.7,0.52,2.64V73.03z"/>
	<path class="st0" d="M633.34,59.48c0-1.02,0.19-1.98,0.58-2.88c0.39-0.9,0.91-1.68,1.56-2.33c0.65-0.65,1.43-1.17,2.33-1.56
		c0.9-0.39,1.84-0.58,2.82-0.58c0.98,0,1.92,0.2,2.82,0.58c0.9,0.39,1.68,0.91,2.36,1.56c0.67,0.66,1.2,1.43,1.59,2.33
		c0.39,0.9,0.58,1.86,0.58,2.88c0,0.98-0.2,1.91-0.58,2.79c-0.39,0.88-0.92,1.65-1.59,2.3c-0.68,0.65-1.46,1.17-2.36,1.56
		c-0.9,0.39-1.84,0.58-2.82,0.58c-0.98,0-1.92-0.2-2.82-0.58c-0.9-0.39-1.68-0.91-2.33-1.56c-0.66-0.66-1.17-1.42-1.56-2.3
		C633.54,61.39,633.34,60.46,633.34,59.48z M647.32,123.43c0,0.9-0.17,1.76-0.52,2.58c-0.35,0.82-0.82,1.52-1.41,2.12
		c-0.59,0.59-1.29,1.06-2.08,1.41c-0.8,0.35-1.67,0.52-2.61,0.52c-0.9,0-1.76-0.17-2.58-0.52c-0.82-0.35-1.53-0.82-2.15-1.41
		c-0.61-0.59-1.09-1.3-1.44-2.12c-0.35-0.82-0.52-1.68-0.52-2.58V79.65c0-0.9,0.18-1.75,0.55-2.54c0.37-0.8,0.86-1.5,1.47-2.12
		c0.61-0.61,1.33-1.09,2.15-1.44c0.82-0.34,1.7-0.52,2.64-0.52c0.94,0,1.8,0.17,2.58,0.52c0.78,0.35,1.46,0.83,2.05,1.44
		c0.59,0.61,1.05,1.32,1.38,2.12c0.33,0.8,0.49,1.65,0.49,2.54V123.43z"/>
</g>
<path class="st1" d="M109.34,56.18c-5.52-0.96-18.45,8.64-20.9,22.82c-1.26,7.31,1.29,14.55,4.42,19.9v0l0,0
	c1.94,3.32,4.01,6.04,5.66,7.4c0.1-0.29,0.22-0.61,0.33-0.93c0.04-0.12,0.09-0.24,0.13-0.37c0.07-0.2,0.14-0.4,0.21-0.6
	c0.07-0.2,0.15-0.41,0.22-0.63c0.04-0.11,0.08-0.22,0.12-0.33c0.45-1.27,0.94-2.69,1.46-4.21c0,0,0,0,0,0
	c0.14-0.4,0.27-0.8,0.41-1.21c-0.92-1-3.2-3.64-5.44-7.63c-2.78-4.94-2.61-8.61-2.61-8.61s0.93,3.58,3.34,6.74
	c2.22,2.9,5.29,6,6.38,4.43c0,0,0,0,0,0c0.55-1.73,1.09-3.47,1.58-5.14c0.01-0.05,0.03-0.1,0.04-0.14c-0.64-0.66-2.78-3.01-4.9-6.74
	c-2.43-4.26-2.3-7.43-2.3-7.43s0.82,3.09,2.92,5.81c1.92,2.48,4.57,5.13,5.52,3.82c0.03-0.12,0.07-0.25,0.09-0.36
	c0.19-0.79,0.37-1.57,0.54-2.33c0.03-0.14,0.06-0.27,0.09-0.41c0.16-0.73,0.32-1.46,0.46-2.16c0-0.01,0-0.01,0-0.02
	c-0.52-0.44-1.87-1.64-3.3-3.55c-1.75-2.34-1.91-4.23-1.91-4.23s0.71,1.77,2.16,3.23c1.34,1.35,3.13,2.74,3.57,1.83v0
	c0.27-1.53,0.49-2.98,0.65-4.36c0-0.01,0-0.01,0-0.02c0.17-1.36,0.28-2.64,0.35-3.85c0-0.03,0-0.06,0-0.1
	c0.03-0.53,0.05-1.05,0.06-1.55c0-0.08,0-0.16,0.01-0.24c0.01-0.52,0.01-1.03-0.01-1.52c0-0.04,0-0.08-0.01-0.12
	c-0.01-0.43-0.03-0.84-0.06-1.24c-0.01-0.11-0.02-0.22-0.03-0.33c-0.04-0.43-0.08-0.84-0.13-1.24v0v0c0,0,2.78,5.22,1.88,15.01
	c0.02,1.13,1.53,0.36,2.87-0.72c1.36-1.1,2.13-2.53,2.13-2.53s-0.97,2.37-2.18,3.82c-0.95,1.13-2.67,2.01-3.16,2.25
	c-0.02,0.13-0.03,0.24-0.05,0.37c-0.12,0.75-0.28,1.55-0.45,2.35c-0.03,0.16-0.07,0.32-0.1,0.48c-0.17,0.81-0.36,1.63-0.58,2.47
	c0.14,1.35,2.64,0.53,4.96-0.75c2.56-1.41,4.25-3.54,4.25-3.54s-2.29,3.63-4.71,5.65c-1.74,1.45-4.5,2.37-5.62,2.71
	c-0.46,1.55-0.95,3.11-1.45,4.65c0,0,0,0,0,0c-0.01,0.07-0.03,0.17-0.06,0.31c-0.53,2.55,3.05,1.48,6.36-0.32
	c3.31-1.79,5.5-4.53,5.5-4.53s-2.97,4.66-6.11,7.24c-2.82,2.32-7.7,3.58-7.88,3.62c-0.85,2.34-1.66,4.47-2.35,6.24
	c-0.08,0.21-0.17,0.42-0.24,0.62c-0.06,0.15-0.12,0.3-0.18,0.45c-0.13,0.32-0.25,0.63-0.36,0.92c-0.01,0.02-0.02,0.05-0.03,0.08
	c0.18,0.01,0.37,0,0.57-0.04c0.43-0.09,0.92-0.3,1.5-0.56h0l0,0c5.3-2.35,16.39-10.53,18.4-22.14
	C123.54,72.13,114.39,57.06,109.34,56.18"/>
<path class="st1" d="M65.12,75.15c-0.87-9.9-9.23-17.26-13.08-16.92c-3.53,0.31-10.7,10.17-9.92,18.95
	c0.72,8.11,7.88,14.38,11.4,16.3l0,0h0c0.38,0.21,0.71,0.38,1,0.47c0.13,0.04,0.26,0.05,0.38,0.05c-0.44-1.44-1.06-3.53-1.7-5.9
	c-0.13-0.05-3.41-1.19-5.22-2.95c-2.01-1.96-3.79-5.34-3.79-5.34s1.35,2.01,3.52,3.43c2.18,1.42,4.58,2.37,4.36,0.58
	c-0.01-0.09-0.02-0.16-0.02-0.21c-0.26-1.1-0.51-2.2-0.73-3.3c-0.74-0.29-2.59-1.08-3.71-2.19c-1.56-1.53-2.92-4.16-2.92-4.16
	s1.04,1.57,2.72,2.68c1.55,1.03,3.23,1.72,3.37,0.75c-0.21-1.29-0.38-2.53-0.47-3.66c-0.01-0.09-0.01-0.17-0.01-0.26
	c-0.32-0.19-1.46-0.9-2.05-1.73c-0.76-1.06-1.28-2.75-1.28-2.75s0.45,1.03,1.32,1.86c0.86,0.82,1.86,1.44,1.93,0.66
	c-0.06-6.8,2.15-10.23,2.15-10.23c-0.54,2.38-0.63,5.76-0.25,10.02c0.21,0.73,1.55-0.13,2.56-1c1.08-0.92,1.67-2.1,1.67-2.1
	s-0.22,1.29-1.56,2.81c-1.09,1.23-2.08,1.98-2.47,2.25c0.13,1.11,0.28,2.25,0.47,3.46c0.01,0.08,0.03,0.17,0.04,0.25
	c0.58,0.96,2.55-0.71,4.02-2.31c1.6-1.75,2.34-3.83,2.34-3.83s-0.09,2.19-2.01,4.98c-1.68,2.45-3.29,3.94-3.77,4.36
	c0.25,1.21,0.52,2.47,0.81,3.73c0.66,1.15,2.95-0.81,4.65-2.69c1.85-2.04,2.69-4.45,2.69-4.45s-0.09,2.54-2.29,5.78
	c-1.78,2.63-3.5,4.31-4.19,4.94c0.57,2.32,1.12,4.42,1.51,5.87c1.22-0.84,2.8-2.59,4.32-4.77l0,0v0
	C63.39,85.1,65.57,80.26,65.12,75.15"/>
<path class="st1" d="M104.06,115.7c-0.06,0.03-0.12,0.05-0.17,0.08c-0.84,0.37-1.69,0.72-2.69,0.93c-0.55,0.11-1.12,0.17-1.7,0.17
	c-0.16,0-0.32-0.01-0.48-0.01c-1.65-0.09-3.28-0.64-4.84-1.64c-0.39-0.25-0.82-0.52-1.22-0.89c-6.07-5.68-10.36-16.8-12.38-26.89
	c-0.82-4.09-3.02-5.69-5.41-5.67c-1.21,0.01-2.59,0.24-3.61,1.15c-2.72,2.43-5.96,15.14-11.09,17.99
	c-5.17,2.88-12.64-1.69-14.11-3.12c-4.4-4.29-7.86-10.71-8.38-16.56c-0.16-1.77-0.07-3.48,0.17-5.1c-1.56,5.84-1.94,12.11-0.87,18.5
	c3.83,22.85,25.23,38.85,48.24,36.07c18.62-2.25,32.99-15.86,37.17-32.97C118.21,106.66,109.83,113.11,104.06,115.7"/>
<path class="st1" d="M86.66,69.05c3.87-6.15,2.26-14.13-0.14-15.64c-2.19-1.38-10.72,1.2-14.15,6.65
	c-3.17,5.04-1.77,11.86-0.57,14.53v0l0,0c0.13,0.29,0.24,0.54,0.37,0.71c0.06,0.08,0.13,0.14,0.2,0.2c0.38-1.04,0.94-2.52,1.61-4.19
	c-0.06-0.09-1.46-2.2-1.74-4.02c-0.31-2.03,0.15-4.78,0.15-4.78s-0.1,1.77,0.54,3.56c0.64,1.79,1.62,3.41,2.28,2.27
	c0.04-0.06,0.06-0.1,0.08-0.13c0.33-0.75,0.68-1.51,1.03-2.25c-0.3-0.5-1.03-1.78-1.19-2.92c-0.23-1.58,0.14-3.72,0.14-3.72
	s-0.09,1.37,0.4,2.77c0.45,1.28,1.12,2.43,1.63,1.92c0.45-0.85,0.9-1.64,1.35-2.34c0.04-0.05,0.07-0.1,0.11-0.16
	c-0.1-0.25-0.45-1.17-0.43-1.91c0.03-0.95,0.47-2.17,0.47-2.17s-0.19,0.8-0.05,1.67c0.14,0.86,0.45,1.66,0.83,1.24
	c2.97-3.98,5.78-5.01,5.78-5.01c-1.37,1.15-2.92,3.08-4.58,5.72c-0.2,0.52,0.96,0.61,1.94,0.55c1.03-0.06,1.9-0.48,1.9-0.48
	s-0.7,0.66-2.15,0.95c-1.18,0.23-2.09,0.23-2.44,0.22c-0.41,0.7-0.83,1.43-1.26,2.22c-0.03,0.05-0.06,0.11-0.09,0.17
	c-0.09,0.81,1.8,0.72,3.37,0.43c1.71-0.31,3.06-1.2,3.06-1.2s-1.02,1.24-3.37,2.01c-2.06,0.68-3.66,0.84-4.12,0.87
	c-0.39,0.81-0.79,1.67-1.18,2.53c-0.12,0.96,2.08,0.83,3.89,0.49c1.98-0.37,3.53-1.4,3.53-1.4s-1.18,1.44-3.89,2.35
	c-2.2,0.74-3.95,0.97-4.62,1.03c-0.69,1.6-1.3,3.07-1.71,4.09c1.08,0.05,2.78-0.27,4.63-0.87h0C81.25,74.08,84.66,72.23,86.66,69.05
	"/>
<path class="st0" d="M66.34,55.15C66.34,55.15,66.34,55.16,66.34,55.15c-0.02-0.04-0.03-0.08-0.05-0.12
	c-0.01-0.03-0.03-0.07-0.04-0.1c-0.71-1.7-1.39-3.29-2.5-5.81c-8.53-19.5-13.9-26.81-16.19-29.36c0.02-0.16,0.04-0.32,0.05-0.49
	c0.06-2.17-1.64-4-3.82-4.05c-0.55-0.01-0.99,0.09-1.2,0.17C34.9,7.84,25.12,4.08,24.62,4.01c-1.24-0.18-2.96,3.01-3.15,4.25
	c-0.18,1.24-0.39,2.19,1.91,2.58c0.11,0.02,9.7,1.5,16.46,7.5c-0.05,0.23-0.08,0.47-0.09,0.72c-0.06,2.17,1.65,3.99,3.82,4.05
	c0.23,0.01,0.45-0.01,0.67-0.04c1.82,2.09,6.95,9,15.24,27.94c1.07,2.46,1.79,4.09,2.47,5.7c0.02,0.07,0.05,0.13,0.08,0.19
	c0.02,0.04,0.03,0.07,0.05,0.11c0,0,0,0,0,0c0.4,0.73,1.17,1.22,2.06,1.22c1.29,0,2.33-1.04,2.33-2.33
	C66.46,55.63,66.42,55.39,66.34,55.15"/>
</svg>
